<?xml version="1.0" encoding="UTF-8" standalone="no"?>
<svg
   id="Layer_3"
   enable-background="new 0 0 64 64"
   height="92"
   viewBox="0 0 11.5 11.5"
   width="92"
   version="1.1"
   sodipodi:docname="benefits-1.svg"
   inkscape:version="1.1.1 (3bf5ae0d25, 2021-09-20)"
   xmlns:inkscape="http://www.inkscape.org/namespaces/inkscape"
   xmlns:sodipodi="http://sodipodi.sourceforge.net/DTD/sodipodi-0.dtd"
   xmlns="http://www.w3.org/2000/svg"
   xmlns:svg="http://www.w3.org/2000/svg">
  <defs
     id="defs23" />
  <sodipodi:namedview
     id="namedview21"
     pagecolor="#ffffff"
     bordercolor="#666666"
     borderopacity="1.0"
     inkscape:pageshadow="2"
     inkscape:pageopacity="0.0"
     inkscape:pagecheckerboard="0"
     showgrid="false"
     fit-margin-top="0"
     fit-margin-left="0"
     fit-margin-right="0"
     fit-margin-bottom="0"
     inkscape:zoom="1.7050781"
     inkscape:cx="247.49599"
     inkscape:cy="247.49599"
     inkscape:window-width="3440"
     inkscape:window-height="1381"
     inkscape:window-x="0"
     inkscape:window-y="0"
     inkscape:window-maximized="1"
     inkscape:current-layer="Layer_3" />
  <path
     d="M 11.314516,10.016129 H 10.758064 V 4.0806452 H 10.387097 V 10.016129 H 1.1129032 V 3.8951612 h 0.9274193 v 0.185484 H 1.4838709 c -0.1025729,0 -0.1854838,0.082911 -0.1854838,0.1854838 v 5.379032 c 0,0.102573 0.082911,0.185484 0.1854838,0.185484 h 8.5322581 c 0.102573,0 0.185484,-0.08291 0.185484,-0.185484 V 4.266129 H 9.830645 V 9.459677 H 1.6693549 V 4.4516129 h 0.3709676 v 1.1129032 c 0,0.1025729 0.082911,0.1854838 0.185484,0.1854838 h 2.5967741 c 0.102573,0 0.1854839,-0.082911 0.1854839,-0.1854838 V 4.4516129 H 6.6774194 V 4.0806452 H 5.0080645 V 3.8951612 H 6.6774194 V 3.5241936 H 5.0080645 V 2.9677419 c 0,-0.1025729 -0.082911,-0.1854838 -0.1854839,-0.1854838 H 2.2258065 c -0.1025729,0 -0.185484,0.082911 -0.185484,0.1854838 V 3.5241936 H 0.9274194 c -0.1025729,0 -0.1854839,0.082911 -0.1854839,0.1854838 V 10.016129 H 0.1854838 C 0.0829113,10.016129 0,10.09904 0,10.201613 v 0.741935 C 0,11.250339 0.2496612,11.5 0.5564516,11.5 H 10.943548 C 11.250339,11.5 11.5,11.250339 11.5,10.943548 v -0.741935 c 0,-0.102573 -0.08291,-0.185484 -0.185484,-0.185484 z M 2.4112903,3.1532258 H 4.6370968 V 5.3790323 H 2.4112903 Z m 8.7177417,7.7903222 c 0,0.102388 -0.0831,0.185484 -0.185484,0.185484 H 0.5564516 c -0.1023875,0 -0.1854838,-0.0831 -0.1854838,-0.185484 V 10.387097 H 11.129032 Z"
     id="path2"
     style="fill:#3776ab;fill-opacity:1;stroke-width:0.185484" />
  <path
     d="m 6.8629032,2.7822581 h 0.2719194 c 0.032646,0.1036853 0.074193,0.2040322 0.1248305,0.3002984 L 7.0671209,3.2750887 c -0.072524,0.072524 -0.072524,0.1897499 0,0.2622742 l 0.5245484,0.5245484 c 0.072524,0.072524 0.18975,0.072524 0.2622742,0 L 8.0464757,3.869379 c 0.096452,0.050452 0.1967985,0.092185 0.3002985,0.1248305 v 0.2719194 c 0,0.1025729 0.082911,0.1854838 0.1854839,0.1854838 H 9.274194 c 0.102572,0 0.185483,-0.082911 0.185483,-0.1854838 V 3.9942096 C 9.563363,3.9615646 9.66371,3.9200166 9.759976,3.8693791 l 0.192532,0.1925323 c 0.07252,0.072524 0.18975,0.072524 0.262274,0 l 0.524549,-0.5245485 c 0.07252,-0.072524 0.07252,-0.18975 0,-0.2622742 L 10.546798,3.0825565 c 0.05045,-0.096452 0.09218,-0.1967985 0.124831,-0.3002984 h 0.271919 c 0.102573,0 0.185484,-0.082911 0.185484,-0.1854839 V 1.8548387 c 0,-0.1025729 -0.08291,-0.1854838 -0.185484,-0.1854838 H 10.671629 C 10.638989,1.5656695 10.597439,1.4653225 10.546798,1.3690565 l 0.192533,-0.1925323 c 0.07252,-0.072524 0.07252,-0.18975 0,-0.2622742 L 10.214782,0.3897016 c -0.07252,-0.072524 -0.18975,-0.072524 -0.262274,0 L 9.759976,0.5822339 C 9.66371,0.5315968 9.563363,0.4900483 9.459677,0.4574032 V 0.1854838 C 9.459677,0.0829113 9.376766,0 9.274194,0 H 8.5322581 C 8.4296851,0 8.3467742,0.0829109 8.3467742,0.1854838 V 0.4574032 C 8.2430889,0.4900487 8.1427419,0.5315962 8.0464757,0.5822338 L 7.8539435,0.3897016 c -0.072524,-0.072524 -0.1897499,-0.072524 -0.2622742,0 L 7.0671209,0.91425 c -0.072524,0.072524 -0.072524,0.1897501 0,0.2622742 L 7.2596533,1.3690565 C 7.2090153,1.465323 7.1674683,1.5656694 7.1348227,1.6693549 H 6.8629032 c -0.1025729,0 -0.1854838,0.082911 -0.1854838,0.1854838 v 0.7419355 c 0,0.1025729 0.082911,0.1854839 0.1854838,0.1854839 z M 7.048387,2.0403225 h 0.2281452 c 0.086622,0 0.1615565,-0.059912 0.1808468,-0.1443064 C 7.494476,1.7333467 7.5586531,1.5790241 7.6478709,1.4371291 7.6940559,1.3636771 7.6832979,1.2683387 7.6220889,1.207129 L 7.4603468,1.0453871 7.722621,0.7831129 7.8843629,0.9448549 c 0.061395,0.06158 0.1569193,0.071968 0.23,0.025783 C 8.2562581,0.8814205 8.4105805,0.8172426 8.57325,0.7801458 8.6578309,0.760856 8.7177419,0.6857346 8.7177419,0.5991135 V 0.3709684 H 9.08871 v 0.2281451 c 0,0.086622 0.05991,0.1615565 0.144306,0.1808468 0.162669,0.037097 0.316992,0.1012738 0.458887,0.1904919 0.07327,0.046185 0.168605,0.035799 0.23,-0.025782 l 0.161742,-0.1617432 0.262274,0.2622742 -0.161742,0.1617419 c -0.06121,0.061209 -0.07197,0.1567339 -0.02578,0.23 0.08922,0.1418952 0.153396,0.2962178 0.190492,0.4588872 0.01929,0.084581 0.09441,0.1444918 0.181033,0.1444918 h 0.228145 v 0.3709678 h -0.228145 c -0.08662,0 -0.161557,0.059912 -0.180847,0.1443065 -0.0371,0.1626693 -0.101274,0.3169919 -0.190492,0.4588871 -0.04619,0.073451 -0.03543,0.1687903 0.02578,0.2299999 L 10.346105,3.4062258 10.083831,3.6685 9.922089,3.506758 C 9.860699,3.445363 9.765169,3.43479 9.692089,3.480976 9.550193,3.570193 9.395871,3.634371 9.233202,3.6714678 9.148622,3.6907578 9.08871,3.7658788 9.08871,3.8525001 V 4.0806452 H 8.7177419 V 3.8525 c 0,-0.086622 -0.059912,-0.1615565 -0.1443065,-0.1808468 C 8.4107661,3.6345565 8.2564435,3.5703791 8.1145483,3.4811613 8.0412822,3.4349758 7.9459436,3.4455484 7.8845484,3.5069435 L 7.7228064,3.6686855 7.4605323,3.4064113 7.6222742,3.2446693 c 0.06121,-0.06121 0.071968,-0.1567339 0.025782,-0.23 C 7.5588387,2.8727741 7.4946613,2.7184517 7.4575645,2.5557822 7.4382741,2.4712016 7.3631532,2.4112903 7.2765322,2.4112903 H 7.048387 Z"
     id="path4"
     style="fill:#ffcd3c;fill-opacity:1;stroke-width:0.185484" />
  <path
     d="m 8.9032257,3.5241936 c 0.7157823,0 1.2983873,-0.5826049 1.2983873,-1.2983871 0,-0.7157824 -0.582605,-1.2983871 -1.2983873,-1.2983871 -0.7157822,0 -1.2983871,0.5826047 -1.2983871,1.2983871 0,0.7157822 0.5826049,1.2983871 1.2983871,1.2983871 z m 0,-2.2258065 c 0.5113793,0 0.9274193,0.4160403 0.9274193,0.9274194 0,0.5113789 -0.41604,0.9274193 -0.9274193,0.9274193 -0.5113789,0 -0.9274193,-0.4160404 -0.9274193,-0.9274193 0,-0.5113791 0.4160404,-0.9274194 0.9274193,-0.9274194 z"
     id="path6"
     style="fill:#ffcd3c;fill-opacity:1;stroke-width:0.185484" />
  <path
     d="M 9.645161,6.3064516 V 5.9354839 H 9.444839 C 9.413306,5.7160565 9.326871,5.514621 9.199629,5.3449031 L 9.34171,5.2028226 9.079435,4.9405484 8.9373548,5.082629 C 8.767637,4.9553871 8.5662016,4.8689515 8.3467742,4.8374194 V 4.6370968 H 7.9758064 V 4.8374194 C 7.756379,4.8689515 7.5549435,4.9553871 7.3852258,5.082629 L 7.2431451,4.9405484 6.9808709,5.2028226 7.1229516,5.3449031 C 6.9957096,5.514621 6.9092742,5.7160565 6.8777419,5.9354839 H 6.6774194 v 0.3709677 h 0.2003225 c 0.031532,0.2194274 0.117968,0.4208629 0.2452097,0.5905806 L 6.9808709,7.0391129 7.2431451,7.3013871 7.3852258,7.1593064 C 7.5549435,7.2865485 7.756379,7.3727984 7.9758064,7.4045161 V 7.6048386 H 8.3467742 V 7.4045161 C 8.5662016,7.3729838 8.767637,7.2865484 8.9373548,7.1593064 L 9.079435,7.3013871 9.34171,7.0391129 9.199629,6.8970322 C 9.326871,6.7273145 9.413121,6.525879 9.444839,6.3064516 Z M 9.08871,6.1209677 c 0,0.5113791 -0.4160407,0.9274193 -0.9274197,0.9274193 -0.511379,0 -0.9274193,-0.4160402 -0.9274193,-0.9274193 0,-0.5113791 0.4160403,-0.9274194 0.9274193,-0.9274194 0.511379,0 0.9274197,0.4160403 0.9274197,0.9274194 z"
     id="path8"
     style="fill:#3776ab;fill-opacity:1;stroke-width:0.185484" />
  <path
     d="m 8.1612903,5.3790323 c -0.4091774,0 -0.7419355,0.3327581 -0.7419355,0.7419354 0,0.4091774 0.3327581,0.7419355 0.7419355,0.7419355 0.4091775,0 0.7419354,-0.3327581 0.7419354,-0.7419355 0,-0.4091773 -0.3327579,-0.7419354 -0.7419354,-0.7419354 z m 0,1.1129032 c -0.2045887,0 -0.3709677,-0.1663791 -0.3709677,-0.3709678 0,-0.2045887 0.166379,-0.3709678 0.3709677,-0.3709678 0.2045886,0 0.3709678,0.1663791 0.3709678,0.3709678 0,0.2045887 -0.1663792,0.3709678 -0.3709678,0.3709678 z"
     id="path10"
     style="fill:#3776ab;fill-opacity:1;stroke-width:0.185484" />
  <path
     d="M 4.8225806,6.1209677 H 2.2258065 c -0.1025729,0 -0.185484,0.082911 -0.185484,0.1854839 v 2.5967741 c 0,0.1025733 0.082911,0.1854843 0.185484,0.1854843 h 2.5967741 c 0.102573,0 0.1854839,-0.08291 0.1854839,-0.1854843 V 6.3064516 c 0,-0.1025729 -0.082911,-0.1854839 -0.1854839,-0.1854839 z M 4.6370968,8.7177419 H 2.4112903 V 6.4919355 h 2.2258065 z"
     id="path12"
     style="fill:#3776ab;fill-opacity:1;stroke-width:0.185484" />
  <path
     d="M 3.3247984,4.6803145 2.9306452,4.1548387 2.6338709,4.3774193 3.1903225,5.1193548 c 0.035242,0.046927 0.090146,0.074193 0.1483871,0.074193 0.0026,0 0.0052,0 0.00779,-1.854e-4 0.06121,-0.0026 0.1170397,-0.035057 0.1495,-0.086992 L 4.4234193,3.6225 4.1090242,3.4257016 Z"
     id="path14"
     style="fill:#ffcd3c;fill-opacity:1;stroke-width:0.185484" />
  <path
     d="M 2.9133952,8.4779113 3.5241936,7.8671128 4.1349919,8.4779113 4.3972661,8.2156371 3.7864678,7.6048386 4.3972661,6.9940403 4.1349919,6.7317661 3.5241936,7.3425644 2.9133952,6.7317661 2.651121,6.9940403 3.2619194,7.6048386 2.651121,8.2156371 Z"
     id="path16"
     style="fill:#ffcd3c;fill-opacity:1;stroke-width:0.185484" />
</svg>
