<svg xmlns="http://www.w3.org/2000/svg" xmlns:svg="http://www.w3.org/2000/svg" id="Capa_1" width="92" height="92" enable-background="new 0 0 512 512" version="1.1" viewBox="0 0 92 92"><path id="path2" d="M 92,32.199632 C 92,25.422397 89.08667,20.469803 84.14933,18.737162 82.815331,13.079244 75.761997,9.1999671 72.066664,9.1999671 c -2.431675,-0.0874 -4.856258,0.313946 -7.13,1.1806499 C 59.999331,3.7720471 53.160664,1.0105111e-4 45.999998,1.0105111e-4 37.913391,-0.02270895 30.301924,3.8172791 25.514666,10.334617 23.75229,9.5758201 21.852107,9.1894261 19.933333,9.1999671 14.563216,9.2047671 10.020333,13.171434 9.292,18.491832 3.971525,19.220154 0.004792,23.762972 0,29.13301 c 0.0051,5.680725 2.869442,10.977164 7.620666,14.091127 -1.8078,0.66469 -3.012232,2.382573 -3.020667,4.308604 v 18.399732 c 0.0077,2.537245 2.062717,4.592265 4.600001,4.599932 v 16.866423 c 0,0.84676 0.686549,1.53331 1.533333,1.53331 h 4.876 c 0.846783,2.39522 3.475108,3.65043 5.870174,2.80346 2.395067,-0.84696 3.650484,-3.47505 2.803508,-5.87008 -0.846974,-2.395036 -3.475107,-3.650433 -5.870174,-2.803471 -1.310041,0.46306 -2.340442,1.493641 -2.803508,2.803471 H 12.266667 V 70.532405 h 4.599999 v 6.133244 c 5.75e-4,0.704557 0.481275,1.318264 1.165334,1.487312 l 5.167332,1.287981 c 0.702843,2.423589 3.237442,3.81871 5.661259,3.115879 2.423624,-0.702831 3.818766,-3.237395 3.115925,-5.661175 -0.702842,-2.423782 -3.237442,-3.818711 -5.661258,-3.11588 -1.305058,0.378537 -2.373984,1.318073 -2.916592,2.563887 l -3.465333,-0.873987 v -4.937261 h 21.466665 v 11.63783 l -2.468666,2.468633 c -1.520109,-2.035473 -4.402584,-2.453492 -6.438083,-0.933406 -2.035501,1.520086 -2.453526,4.402526 -0.933417,6.437986 1.520109,2.03547 4.402583,2.4535 6.438084,0.9334 0.96274,-0.71892 1.605783,-1.78572 1.792083,-2.9727 l 4.232,-4.216604 c 0.282516,-0.292288 0.4416,-0.682132 0.444666,-1.088652 V 70.532405 h 3.066667 v 12.266487 c 0.0031,0.40652 0.162149,0.796364 0.444666,1.088652 l 4.232,4.216604 c 0.395409,2.50352 2.745433,4.21258 5.248983,3.81718 2.50355,-0.3954 4.212642,-2.7454 3.817233,-5.24891 -0.395408,-2.50351 -2.745241,-4.212578 -5.248983,-3.817177 -1.180858,0.18649 -2.242308,0.826455 -2.958566,1.783627 l -2.468667,-2.468633 v -11.63783 h 21.466666 v 4.937261 l -3.465333,0.873987 c -1.009892,-2.34769 -3.731941,-3.432124 -6.079666,-2.422247 -2.347725,1.009877 -3.432175,3.731886 -2.422283,6.079577 1.00989,2.347691 3.731941,3.432125 6.079666,2.422248 1.27765,-0.549692 2.240391,-1.644667 2.621616,-2.982289 l 5.167333,-1.287981 c 0.684058,-0.169048 1.164759,-0.782755 1.165334,-1.487312 v -6.133244 h 4.599999 v 15.333113 h -3.342666 c -0.846784,-2.395227 -3.475108,-3.650433 -5.870175,-2.803471 -2.395259,0.846771 -3.650483,3.475061 -2.803508,5.870091 0.846783,2.39522 3.475108,3.65043 5.870175,2.80346 1.310041,-0.46305 2.340442,-1.49363 2.803508,-2.80346 h 4.876 c 0.846783,0 1.533333,-0.68655 1.533333,-1.53331 V 70.532405 C 85.33728,70.524717 87.39233,68.469718 87.4,65.932473 V 47.532741 C 87.402,46.305134 86.9099,45.128318 86.03533,44.266789 89.71533,41.997488 92,37.658218 92,32.199632 Z M 19.933333,85.865518 c 0.846782,0 1.533333,0.68653 1.533333,1.53331 0,0.84676 -0.686551,1.53331 -1.533333,1.53331 -0.846784,0 -1.533334,-0.68655 -1.533334,-1.53331 0,-0.84678 0.68655,-1.53331 1.533334,-1.53331 z m 7.666666,-9.199869 c 0.846784,0 1.533333,0.686539 1.533333,1.533311 0,0.846771 -0.686549,1.533311 -1.533333,1.533311 -0.846784,0 -1.533333,-0.68654 -1.533333,-1.533311 0,-0.846772 0.686549,-1.533311 1.533333,-1.533311 z m 7.666666,12.266489 c -0.846782,0 -1.533333,-0.68655 -1.533333,-1.53331 0,-0.84678 0.686551,-1.53331 1.533333,-1.53331 0.846784,0 1.533334,0.68653 1.533334,1.53331 0,0.84676 -0.68655,1.53331 -1.533334,1.53331 z m 21.466666,-3.06662 c 0.846783,0 1.533334,0.68653 1.533334,1.53331 0,0.84676 -0.686551,1.53331 -1.533334,1.53331 -0.846783,0 -1.533333,-0.68655 -1.533333,-1.53331 0,-0.84678 0.68655,-1.53331 1.533333,-1.53331 z m 7.666667,-6.133247 c -0.846784,0 -1.533334,-0.68654 -1.533334,-1.533311 0,-0.846772 0.68655,-1.533311 1.533334,-1.533311 0.846783,0 1.533333,0.686539 1.533333,1.533311 0,0.846771 -0.68655,1.533311 -1.533333,1.533311 z m 7.666666,9.199867 c -0.846784,0 -1.533334,-0.68655 -1.533334,-1.53331 0,-0.84678 0.68655,-1.53331 1.533334,-1.53331 0.846784,0 1.533333,0.68653 1.533333,1.53331 0,0.84676 -0.686549,1.53331 -1.533333,1.53331 z M 61.333331,67.465783 H 30.666666 V 55.199295 h 4.599999 v 7.666556 c 0,0.84677 0.68655,1.53331 1.533334,1.53331 h 18.399999 c 0.846784,0 1.533333,-0.68654 1.533333,-1.53331 v -7.666556 h 4.6 z M 38.333332,61.332539 v -6.133244 h 15.333333 v 6.133244 z M 84.33333,49.066052 h -7.666666 v 3.066622 h 7.666666 v 3.066621 h -7.666666 v 3.066622 h 7.666666 v 3.066622 h -7.666666 v 3.066622 h 7.666666 v 1.533312 c 0,0.84677 -0.686549,1.53331 -1.533333,1.53331 H 64.399998 V 53.665985 c 0,-0.846772 -0.68655,-1.533311 -1.533334,-1.533311 h -1.533333 v -3.066622 h -3.066666 v 3.066622 h -6.133334 v -3.066622 h -3.066666 v 3.066622 h -6.133334 v -3.066622 h -3.066665 v 3.066622 h -6.133334 v -3.066622 h -3.066666 v 3.066622 h -1.533334 c -0.846783,0 -1.533333,0.686539 -1.533333,1.533311 V 67.465783 H 9.2 c -0.846784,0 -1.533334,-0.68654 -1.533334,-1.53331 v -1.533312 h 7.666666 V 61.332539 H 7.666666 v -3.066622 h 7.666666 V 55.199295 H 7.666666 v -3.066621 h 7.666666 V 49.066052 H 7.666666 v -1.533311 c 0,-0.84677 0.68655,-1.533311 1.533334,-1.533311 h 73.599997 c 0.846784,0 1.533333,0.686541 1.533333,1.533311 z M 82.431997,21.420455 c 4.063333,1.027319 6.501333,5.059927 6.501333,10.779177 0,5.335921 -2.852,10.733176 -9.2,10.733176 H 59.799997 c -1.650824,-0.09028 -3.159816,-0.961577 -4.063332,-2.345966 -0.973475,-1.208248 -1.335534,-2.797909 -0.981333,-4.308603 0.928624,-2.789285 3.941049,-4.298829 6.731332,-3.373284 l 0.966,-2.897958 c -4.387824,-1.468529 -9.135408,0.897754 -10.604149,5.285706 -0.0022,0.0066 -0.0044,0.01303 -0.0066,0.01955 -0.69115,2.446014 -0.166366,5.075259 1.410667,7.068563 0.137999,0.199331 0.291333,0.367995 0.429333,0.551992 H 38.317998 c 0.138001,-0.183997 0.291334,-0.352661 0.429334,-0.551992 1.577033,-1.993304 2.101816,-4.622549 1.410667,-7.068563 -1.457817,-4.391403 -6.19965,-6.769568 -10.591117,-5.311773 -0.0066,0.0022 -0.01303,0.0044 -0.01955,0.0066 l 0.966001,2.897958 c 2.789899,-0.921903 5.800024,0.586492 6.731332,3.373284 0.354201,1.510694 -0.0079,3.100355 -0.981333,4.308603 -0.903517,1.384389 -2.412508,2.255693 -4.063334,2.345966 H 16.866666 C 9.250025,42.920971 3.07855,36.749585 3.066667,29.133054 c 0.0095,-3.685313 2.634841,-6.844508 6.256,-7.528557 0.480699,2.984015 2.758082,5.359114 5.719332,5.96458 0.423775,0.08644 0.8556,0.127456 1.288,0.122665 2.72665,-0.03431 5.215825,-1.558227 6.486,-3.971275 l -2.698666,-1.441313 c -0.848126,1.650801 -2.659184,2.571746 -4.492667,2.284633 -2.088783,-0.472451 -3.517084,-2.402889 -3.357999,-4.5386 h -0.01534 c 0,-0.03066 0.01534,-0.06133 0.01534,-0.092 0,-4.234046 3.432558,-7.666554 7.666666,-7.666554 1.910341,0.0037 3.790208,0.477626 5.473999,1.379979 0.584009,0.277146 1.279375,0.154098 1.732667,-0.306662 l 0.01534,0.01534 c 1.228583,-1.101683 2.906433,-1.556693 4.523332,-1.226649 1.547517,0.171157 2.93135,1.041119 3.756667,2.361299 1.306975,2.634036 0.237475,5.828882 -2.392,7.14523 l 1.38,2.729292 c 4.139233,-2.076293 5.813825,-7.113412 3.741333,-11.254502 -1.239508,-2.219467 -3.470125,-3.7083119 -5.995333,-4.0019409 -0.451566,-0.0713 -0.907542,-0.112315 -1.364667,-0.122665 4.163384,-3.776928 9.574133,-5.884464 15.195333,-5.91858 5.161775,0.08356 10.077833,2.218701 13.662,5.933914 -0.457125,-0.0023 -0.913484,0.03354 -1.364667,0.107331 -2.525208,0.293629 -4.755825,1.7824739 -5.995333,4.0019409 -2.056967,4.14224 -0.386209,9.16805 3.741333,11.254502 l 1.38,-2.729292 c -2.623341,-1.321523 -3.690924,-4.510618 -2.392,-7.14523 0.825317,-1.32018 2.20915,-2.190142 3.756667,-2.361299 1.617283,-0.340586 3.299733,0.115766 4.523334,1.226649 l 0.01534,-0.01534 c 0.43125,0.439294 1.083301,0.578058 1.656001,0.352661 l 0.46,-0.199329 c 2.08035,-0.925737 4.350066,-1.346056 6.623999,-1.226649 3.0498,0.503309 5.806925,2.113861 7.743333,4.523267 -1.028483,-0.189172 -2.082458,-0.194347 -3.112666,-0.01534 -2.525209,0.293628 -4.755825,1.782473 -5.995333,4.001942 -2.056967,4.142238 -0.386209,9.168049 3.741333,11.254502 l 1.38,-2.729294 c -2.623341,-1.321523 -3.690925,-4.510617 -2.392,-7.145229 0.825316,-1.320181 2.20915,-2.190143 3.756666,-2.361298 1.617284,-0.338287 3.298584,0.117681 4.523334,1.226648 z" style="fill:#3776ab;fill-opacity:1;stroke-width:.191665"/></svg>