<svg xmlns="http://www.w3.org/2000/svg" xmlns:svg="http://www.w3.org/2000/svg" id="svg10" width="92" height="92" version="1.1" viewBox="0 0 23 23"><path id="path2" d="m 17.418637,10.66751 h 3.802287 a 0.92194898,0.92194898 0 1 0 0,-0.6791878 h -3.802287 v -1.666921 h 2.450898 a 0.33978797,0.33978797 0 0 0 0.339594,-0.339594 v -2.237439 h 1.011795 a 0.92194898,0.92194898 0 1 0 0,-0.6791879 h -1.351389 a 0.33978797,0.33978797 0 0 0 -0.339594,0.3395939 v 2.237439 h -2.111304 v -1.721256 a 0.33978797,0.33978797 0 0 0 -0.339594,-0.339594 h -1.721256 v -2.111304 h 2.237439 A 0.33978797,0.33978797 0 0 0 17.93482,3.1304653 V 1.7790755 a 0.92156087,0.92156087 0 1 0 -0.679188,0 v 1.0117958 h -2.237439 a 0.33978797,0.33978797 0 0 0 -0.339594,0.339594 V 5.5813632 H 13.011678 V 1.7792696 a 0.92156087,0.92156087 0 1 0 -0.679188,0 V 5.5813632 H 10.66751 V 1.7790755 a 0.92194898,0.92194898 0 1 0 -0.6791877,0 V 5.5813632 H 8.3214013 V 3.1304653 A 0.33978797,0.33978797 0 0 0 7.9818073,2.7908713 H 5.7443683 V 1.7790755 a 0.92194898,0.92194898 0 1 0 -0.6791877,0 v 1.3513898 a 0.33978797,0.33978797 0 0 0 0.3395937,0.3395939 h 2.237439 v 2.111304 h -1.721256 a 0.33978797,0.33978797 0 0 0 -0.339594,0.339594 v 1.721256 H 3.4700594 V 5.4047742 A 0.33978797,0.33978797 0 0 0 3.1304655,5.0651803 H 1.7792698 a 0.92175493,0.92175493 0 1 0 0,0.6791879 h 1.0116018 v 2.237439 a 0.33978797,0.33978797 0 0 0 0.3395939,0.339594 h 2.4508978 v 1.666921 H 1.7792698 a 0.92156087,0.92156087 0 1 0 0,0.6791878 h 3.8020935 v 1.66498 H 1.7790757 a 0.92194898,0.92194898 0 1 0 0,0.679188 h 3.8022876 v 1.666921 H 3.1304655 a 0.33978797,0.33978797 0 0 0 -0.3395939,0.339594 v 2.237439 H 1.7790757 a 0.92194898,0.92194898 0 1 0 0,0.679187 h 1.3513898 a 0.33978797,0.33978797 0 0 0 0.3395939,-0.339593 v -2.237439 h 2.1113039 v 1.721256 a 0.33978797,0.33978797 0 0 0 0.339594,0.339594 h 1.721256 v 2.111304 h -2.237439 a 0.33978797,0.33978797 0 0 0 -0.3395937,0.339594 v 1.351389 a 0.92156087,0.92156087 0 1 0 0.6791877,0 v -1.011796 h 2.237439 a 0.33978797,0.33978797 0 0 0 0.339594,-0.339593 v -2.450898 h 1.666921 v 3.802093 a 0.92156087,0.92156087 0 1 0 0.6791877,0 v -3.802093 h 1.66498 v 3.802287 a 0.92194898,0.92194898 0 1 0 0.679188,0 v -3.802287 h 1.666921 v 2.450898 a 0.33978797,0.33978797 0 0 0 0.339594,0.339593 h 2.237439 v 1.011796 a 0.92175493,0.92175493 0 1 0 0.679188,0 v -1.351389 a 0.33978797,0.33978797 0 0 0 -0.339594,-0.339594 h -2.237439 v -2.111304 h 1.721256 a 0.33978797,0.33978797 0 0 0 0.339594,-0.339594 v -1.721256 h 2.111304 v 2.237439 a 0.33978797,0.33978797 0 0 0 0.339594,0.339593 h 1.351389 a 0.92156087,0.92156087 0 1 0 0,-0.679187 h -1.011795 v -2.237439 a 0.33978797,0.33978797 0 0 0 -0.339594,-0.339594 h -2.450898 v -1.666921 h 3.802093 a 0.92156087,0.92156087 0 1 0 0,-0.679188 h -3.802093 z m 4.657288,-0.582161 a 0.24256709,0.24256709 0 1 1 -0.242567,0.242567 0.24295519,0.24295519 0 0 1 0.242567,-0.242956 z m 0,-4.9229478 a 0.24256709,0.24256709 0 1 1 -0.242567,0.242567 0.24295519,0.24295519 0 0 1 0.242567,-0.2429551 z M 17.59542,0.68150804 a 0.24256709,0.24256709 0 1 1 -0.242567,0.2425671 0.24295519,0.24295519 0 0 1 0.242567,-0.2425671 z m -4.922948,0 a 0.24256709,0.24256709 0 1 1 -0.242567,0.2425671 0.24295519,0.24295519 0 0 1 0.242567,-0.2425671 z m -2.344944,0 a 0.24256709,0.24256709 0 1 1 -0.242567,0.2425671 0.24276114,0.24276114 0 0 1 0.242567,-0.2425671 z m -4.9229477,0 a 0.24256709,0.24256709 0 1 1 -0.242567,0.2425671 0.24276114,0.24276114 0 0 1 0.242567,-0.2425671 z M 0.92407528,5.6471472 A 0.24256709,0.24256709 0 1 1 1.1666424,5.4045802 0.24276114,0.24276114 0 0 1 0.92407528,5.6471472 Z m 0,4.9229478 A 0.24256709,0.24256709 0 1 1 1.1666424,10.327528 0.24276114,0.24276114 0 0 1 0.92407528,10.570095 Z m 0,2.344944 A 0.24256709,0.24256709 0 1 1 1.1666424,12.672472 0.24295519,0.24295519 0 0 1 0.92407528,12.915039 Z m 0,4.922948 A 0.24256709,0.24256709 0 1 1 1.1666424,17.59542 0.24295519,0.24295519 0 0 1 0.92407528,17.837987 Z m 4.48050502,4.480505 a 0.24256709,0.24256709 0 1 1 0.242567,-0.242567 0.24295519,0.24295519 0 0 1 -0.242567,0.242567 z m 4.9229477,0 a 0.24256709,0.24256709 0 1 1 0.242567,-0.242567 0.24295519,0.24295519 0 0 1 -0.242567,0.242567 z m 2.344944,0 a 0.24256709,0.24256709 0 1 1 0.242567,-0.242567 0.24276114,0.24276114 0 0 1 -0.242567,0.242567 z m 4.922948,0 a 0.24256709,0.24256709 0 1 1 0.242567,-0.242567 0.24276114,0.24276114 0 0 1 -0.242567,0.242567 z m 4.480505,-4.965639 a 0.24256709,0.24256709 0 1 1 -0.242567,0.242567 0.24276114,0.24276114 0 0 1 0.242567,-0.242567 z m 0,-4.922948 a 0.24256709,0.24256709 0 1 1 -0.242567,0.242567 0.24276114,0.24276114 0 0 1 0.242567,-0.242567 z m -5.336476,4.309544 H 6.2605513 V 6.2605512 H 16.739449 Z" style="fill:#3776ab;fill-opacity:1;stroke-width:.194054"/><path id="path4" d="M 15.33256,7.3278462 H 7.6674403 a 0.33978797,0.33978797 0 0 0 -0.339594,0.339594 V 15.33256 a 0.33978797,0.33978797 0 0 0 0.339594,0.339594 H 15.33256 A 0.33978797,0.33978797 0 0 0 15.672154,15.33256 V 7.6674402 A 0.33978797,0.33978797 0 0 0 15.33256,7.3278462 Z M 14.992966,14.992966 H 8.0070343 V 8.0070342 h 6.9859317 z" style="fill:#ffcd3c;fill-opacity:1;stroke-width:.194054"/><path id="path6" d="m 14.168238,12.00124 a 0.33978797,0.33978797 0 0 0 0.339594,-0.339593 V 9.7453672 a 0.339594,0.339594 0 0 0 -0.679188,0 v 1.9162798 a 0.33978797,0.33978797 0 0 0 0.339594,0.339593 z" style="fill:#ffcd3c;fill-opacity:1;stroke-width:.194054"/></svg>