<svg xmlns="http://www.w3.org/2000/svg" xmlns:svg="http://www.w3.org/2000/svg" id="Capa_1" width="92" height="92" enable-background="new 0 0 512 512" version="1.1" viewBox="0 0 92 92"><path id="path2" d="M 87.95703,87.45297 H 55.000546 c -2.229382,0 -4.042968,-1.81376 -4.042968,-4.04297 V 71.281101 H 4.0429687 C 1.813586,71.281101 0,69.467329 0,67.238128 V 23.394379 c 0,-0.744446 0.60339062,-1.347657 1.3476563,-1.347657 0.7442655,0 1.3476561,0.603211 1.3476561,1.347657 v 39.80078 H 46.914609 c 0.744266,0 1.347657,0.603212 1.347657,1.347657 0,0.744445 -0.603391,1.347656 -1.347657,1.347656 H 2.6953124 v 1.347656 c 0,0.743188 0.6044689,1.347656 1.3476563,1.347656 H 50.957578 V 47.742035 H 11.843203 c -2.2293826,0 -4.0429687,-1.813766 -4.0429687,-4.042969 v -12.21875 c 0,-2.229203 1.8135861,-4.042969 4.0429687,-4.042969 h 35.071406 c 0.744266,0 1.347657,0.603211 1.347657,1.347657 0,0.744445 -0.603391,1.347655 -1.347657,1.347655 H 11.843203 c -0.743007,0 -1.347656,0.604469 -1.347656,1.347657 v 12.21875 c 0,0.743188 0.604649,1.347656 1.347656,1.347656 H 50.957578 V 26.089691 c 0,-2.229203 1.813586,-4.042969 4.042968,-4.042969 h 23.52289 V 19.35141 H 1.3476563 C 0.60339062,19.35141 0,18.748199 0,18.003753 V 9.7381293 C 0,7.5089263 1.813586,5.6951603 4.0429687,5.6951603 H 63.519531 c 0.744265,0 1.347656,0.603211 1.347656,1.347657 0,0.744445 -0.603391,1.347655 -1.347656,1.347655 H 4.0429687 c -0.7431874,0 -1.3476563,0.604469 -1.3476563,1.347657 V 16.656098 H 83.914062 V 9.7381293 c 0,-0.743188 -0.604469,-1.347657 -1.347657,-1.347657 h -13.65625 c -0.744265,0 -1.347655,-0.60321 -1.347655,-1.347655 0,-0.744446 0.60339,-1.347657 1.347655,-1.347657 h 13.65625 c 2.229384,0 4.042969,1.813766 4.042969,4.042969 V 22.046722 h 1.347656 c 2.229384,0 4.04297,1.813766 4.04297,4.042969 V 83.41 c 0,2.22921 -1.813586,4.04297 -4.04297,4.04297 z M 53.65289,82.06234 V 83.41 c 0,0.74319 0.604469,1.34766 1.347656,1.34766 H 87.95703 c 0.743187,0 1.347657,-0.60447 1.347657,-1.34766 v -1.34766 z m 0,-2.69531 H 89.304687 V 30.132659 H 53.65289 Z m 0,-51.929683 h 35.651797 v -1.347656 c 0,-0.743187 -0.60447,-1.347656 -1.347657,-1.347656 H 55.000546 c -0.743187,0 -1.347656,0.604469 -1.347656,1.347656 z m 27.56586,-5.390625 h 2.695312 V 19.35141 H 81.21875 Z M 42.014531,58.774847 c -0.344821,0 -0.68982,-0.131532 -0.952883,-0.394594 -0.526305,-0.526484 -0.526305,-1.37964 0,-1.905945 l 0.646336,-0.646336 H 25.860625 c -0.744265,0 -1.347656,-0.60321 -1.347656,-1.347656 0,-0.744446 0.603391,-1.347656 1.347656,-1.347656 h 15.847359 l -0.646336,-0.646336 c -0.526305,-0.526485 -0.526305,-1.379641 0,-1.905946 0.526305,-0.526125 1.379641,-0.526125 1.905766,0 l 2.946874,2.946875 c 0.526306,0.526485 0.526306,1.379641 0,1.905946 l -2.946874,2.946874 c -0.263063,0.263242 -0.608062,0.394774 -0.952883,0.394774 z M 79.781249,13.960785 c -0.792602,0 -1.4375,-0.644899 -1.4375,-1.4375 0,-0.792601 0.644898,-1.4375 1.4375,-1.4375 0.792602,0 1.437501,0.644899 1.437501,1.4375 0,0.792601 -0.644899,1.4375 -1.437501,1.4375 z m -5.390625,0 c -0.792601,0 -1.4375,-0.644899 -1.4375,-1.4375 0,-0.792601 0.644899,-1.4375 1.4375,-1.4375 0.792602,0 1.4375,0.644899 1.4375,1.4375 0,0.792601 -0.644898,1.4375 -1.4375,1.4375 z m -5.390624,0 c -0.792602,0 -1.4375,-0.644899 -1.4375,-1.4375 0,-0.792601 0.644898,-1.4375 1.4375,-1.4375 0.792601,0 1.437499,0.644899 1.437499,1.4375 0,0.792601 -0.644898,1.4375 -1.437499,1.4375 z" style="fill:#3776ab;fill-opacity:1;stroke-width:.179687"/><path style="fill:#ffcd3c;fill-opacity:1;stroke-width:.179687" id="path1272" d="m 71.140381,69.716879 c -8.34307,0 -15.130582,-6.78752 -15.130582,-15.13059 0,-8.34307 6.787512,-15.130585 15.130582,-15.130585 2.86782,0 5.65944,0.806257 8.07318,2.331804 0.62909,0.397649 0.81686,1.229961 0.41921,1.859226 -0.39747,0.629266 -1.22978,0.81704 -1.85922,0.419212 -1.98214,-1.252782 -4.27585,-1.914751 -6.63317,-1.914751 -6.85687,0 -12.43527,5.578399 -12.43527,12.435274 0,6.856875 5.5784,12.435273 12.43527,12.435273 6.85688,0 12.43528,-5.578578 12.43528,-12.435453 0,-1.976023 -0.46054,-3.893828 -1.34263,-5.627632 L 71.022691,60.169 c -0.52631,0.526125 -1.37964,0.526125 -1.90577,0 l -6.5983,-6.598304 c -0.52631,-0.526485 -0.52631,-1.379641 0,-1.905946 0.5263,-0.526125 1.37964,-0.526125 1.90576,0 l 5.64542,5.645422 11.46712,-11.466938 c 0.008,-0.0082 0.0158,-0.01617 0.0239,-0.02408 l 2.40943,-2.40943 c 0.52631,-0.526124 1.37964,-0.526124 1.90577,0 0.5263,0.526484 0.5263,1.379641 0,1.905945 l -1.65744,1.657438 c 1.34568,2.30521 2.05203,4.914992 2.05203,7.613359 3.6e-4,8.342891 -6.78716,15.130413 -15.13023,15.130413 z"/><path style="fill:#ffcd3c;fill-opacity:1;stroke-width:.179687" id="path1396" d="m 43.78478,43.076521 c -0.744266,0 -1.347656,-0.60321 -1.347656,-1.347655 v -1.449001 l -1.254758,0.7245 c -0.644539,0.371774 -1.468766,0.151477 -1.840898,-0.493242 -0.372133,-0.644539 -0.151297,-1.468765 0.493242,-1.840898 l 1.254757,-0.72468 -1.254757,-0.7245 c -0.644539,-0.372133 -0.865375,-1.196359 -0.493242,-1.840899 0.371953,-0.644718 1.196179,-0.865195 1.840898,-0.493241 l 1.254758,0.7245 v -1.449001 c 0,-0.744445 0.60339,-1.347656 1.347656,-1.347656 0.744265,0 1.347656,0.603211 1.347656,1.347656 v 1.449001 l 1.254758,-0.7245 c 0.64454,-0.371774 1.468766,-0.151477 1.840899,0.493241 0.372133,0.64454 0.151296,1.468766 -0.493243,1.840899 l -1.254757,0.7245 1.254757,0.7245 c 0.644539,0.372133 0.865376,1.19636 0.493243,1.840899 -0.372133,0.644718 -1.19654,0.865015 -1.840899,0.493241 l -1.254758,-0.7245 v 1.449 c 0,0.744446 -0.603391,1.347836 -1.347656,1.347836 z m -12.578125,0 c -0.744266,0 -1.347656,-0.60321 -1.347656,-1.347655 v -1.449001 l -1.254758,0.7245 c -0.644539,0.371774 -1.468765,0.151477 -1.840898,-0.493242 -0.372133,-0.644539 -0.151297,-1.468765 0.493242,-1.840898 l 1.254758,-0.72468 -1.254758,-0.7245 c -0.644539,-0.372133 -0.865375,-1.196359 -0.493242,-1.840899 0.372133,-0.644718 1.19618,-0.865195 1.840898,-0.493241 l 1.254758,0.7245 v -1.449001 c 0,-0.744445 0.60339,-1.347656 1.347656,-1.347656 0.744266,0 1.347657,0.603211 1.347657,1.347656 v 1.449001 l 1.254757,-0.7245 c 0.644539,-0.371774 1.468766,-0.151477 1.840899,0.493241 0.372133,0.64454 0.151297,1.468766 -0.493242,1.840899 l -1.254759,0.7245 1.254759,0.7245 c 0.644539,0.372133 0.865375,1.19636 0.493242,1.840899 -0.372313,0.644718 -1.196539,0.865015 -1.840899,0.493241 l -1.254757,-0.7245 v 1.449 c 0,0.744446 -0.603391,1.347836 -1.347657,1.347836 z m -12.578125,0 c -0.744265,0 -1.347656,-0.60321 -1.347656,-1.347655 v -1.449001 l -1.254757,0.7245 c -0.644539,0.371774 -1.468767,0.151477 -1.840899,-0.493242 -0.372133,-0.644539 -0.151297,-1.468765 0.493242,-1.840898 l 1.254758,-0.72468 -1.254758,-0.7245 c -0.644539,-0.372133 -0.865375,-1.196359 -0.493242,-1.840899 0.371953,-0.644718 1.196179,-0.865195 1.840899,-0.493241 l 1.254757,0.7245 v -1.449001 c 0,-0.744445 0.603391,-1.347656 1.347656,-1.347656 0.744266,0 1.347656,0.603211 1.347656,1.347656 v 1.449001 l 1.254758,-0.7245 c 0.644539,-0.371774 1.468766,-0.151477 1.840899,0.493241 0.372132,0.64454 0.151297,1.468766 -0.493242,1.840899 l -1.254758,0.7245 1.254758,0.7245 c 0.644539,0.372133 0.865374,1.19636 0.493242,1.840899 -0.372133,0.644718 -1.196539,0.865015 -1.840899,0.493241 l -1.254758,-0.7245 v 1.449 c 0,0.744446 -0.60339,1.347836 -1.347656,1.347836 z"/></svg>