<svg xmlns="http://www.w3.org/2000/svg" xmlns:svg="http://www.w3.org/2000/svg" id="svg4723" width="42mm" height="42mm" version="1.1" viewBox="0 0 42 42"><metadata id="metadata4720"/><g id="layer1" transform="translate(-49.982814,-29.394732)"><g id="g5581" transform="translate(2.70054,0.34795)"><path id="path4350" d="m 71.466239,29.394732 c -3.19084,10e-6 -6.07444,0.51786 -8.6476,1.55288 -2.57511,1.03568 -4.772,2.4759 -6.59052,4.32322 -1.81915,1.84667 -3.23247,4.02947 -4.23934,6.54889 -0.91252,2.2807 -1.41137,4.74581 -1.49741,7.39416 2.80754,3.3581 2.69605,-2.05346 6.05538,-0.17645 0.0899,-1.85885 0.43038,-3.60783 1.02424,-5.24503 0.69963,-1.93181 1.70711,-3.61014 3.02251,-5.03691 1.31475,-1.42741 2.89643,-2.54626 4.74375,-3.35791 1.84668,-0.81164 3.9161,-1.2181 6.21213,-1.2181 2.12704,0 4.09983,0.49092 5.91898,1.46963 1.81787,0.97935 3.20301,2.2244 4.15484,3.73566 l 0.67006,-3.49032 3.77992,0.30007 c -1.67898,-2.23778 -3.87578,-3.93082 -6.58979,-5.07916 -2.71589,-1.14639 -5.38757,-1.72061 -8.01705,-1.72063 z" style="fill:#3776ab;fill-opacity:1;fill-rule:nonzero;stroke:none;stroke-width:.640094"/><path id="path4355" d="m 54.725214,49.323252 c -1.64545,-0.007 -2.28809,3.29237 -4.7424,0.82315 0.0112,2.92854 0.51453,5.63756 1.51073,8.12744 1.00687,2.51815 2.42019,4.70095 4.23934,6.54828 1.81852,1.84668 4.01541,3.2888 6.59052,4.32384 2.57319,1.03441 5.45682,1.55287 8.6477,1.55287 3.41299,0 6.33754,-0.61647 8.77246,-1.84738 1.92916,-0.97499 3.62128,-2.21467 5.07623,-3.71773 l 1.76194,1.76193 -0.004,-7.26448 -7.26447,-0.003 c 0.58969,0.58969 1.17938,1.17937 1.76907,1.76907 -1.02529,1.2009 -2.26926,2.20378 -3.73126,3.0055 -1.73658,0.95247 -3.86227,1.42727 -6.38041,1.42727 -2.29666,0 -4.36681,-0.40519 -6.21349,-1.21748 -1.84668,-0.81034 -3.41428,-1.93037 -4.70087,-3.35778 -1.28852,-1.42678 -2.28126,-3.09165 -2.98088,-4.99528 -0.62482,-1.69628 -0.96984,-3.52878 -1.03693,-5.49447 -0.008,-0.23734 -0.0121,-0.47655 -0.0121,-0.71776 0,-0.0353 8.1e-4,-0.0703 10e-4,-0.10548 -0.50705,-0.44462 -0.9306,-0.61644 -1.30261,-0.61807 z" style="fill:#ffcd3c;fill-opacity:1;fill-rule:nonzero;stroke:none;stroke-width:.640094"/></g></g></svg>