<?xml version="1.0" encoding="UTF-8" standalone="no"?>
<!-- Created with Inkscape (http://www.inkscape.org/) -->

<svg
   width="36.336948mm"
   height="39.782761mm"
   viewBox="0 0 36.336948 39.782761"
   version="1.1"
   id="svg18655"
   inkscape:version="1.1.1 (3bf5ae0d25, 2021-09-20)"
   sodipodi:docname="process-icon-3.svg"
   xmlns:inkscape="http://www.inkscape.org/namespaces/inkscape"
   xmlns:sodipodi="http://sodipodi.sourceforge.net/DTD/sodipodi-0.dtd"
   xmlns="http://www.w3.org/2000/svg"
   xmlns:svg="http://www.w3.org/2000/svg">
  <sodipodi:namedview
     id="namedview18657"
     pagecolor="#ffffff"
     bordercolor="#666666"
     borderopacity="1.0"
     inkscape:pageshadow="2"
     inkscape:pageopacity="0.0"
     inkscape:pagecheckerboard="0"
     inkscape:document-units="mm"
     showgrid="false"
     fit-margin-top="0"
     fit-margin-left="0"
     fit-margin-right="0"
     fit-margin-bottom="0"
     inkscape:zoom="2.1997092"
     inkscape:cx="87.511567"
     inkscape:cy="132.29021"
     inkscape:window-width="1920"
     inkscape:window-height="1021"
     inkscape:window-x="0"
     inkscape:window-y="0"
     inkscape:window-maximized="1"
     inkscape:current-layer="layer1" />
  <defs
     id="defs18652" />
  <g
     inkscape:label="Ebene 1"
     inkscape:groupmode="layer"
     id="layer1"
     transform="translate(-98.176313,-65.500372)">
    <circle
       style="fill:none;stroke:#b3b3b3;stroke-width:1;stroke-linecap:round;stroke-linejoin:round;stroke-miterlimit:4;stroke-dasharray:none;stroke-dashoffset:0;stroke-opacity:1"
       id="path2124"
       cx="116.34479"
       cy="83.668846"
       r="17.668474" />
    <circle
       style="fill:#ffcd3c;fill-opacity:1;stroke:none;stroke-width:1;stroke-linecap:round;stroke-linejoin:round;stroke-miterlimit:4;stroke-dasharray:none;stroke-dashoffset:0;stroke-opacity:1"
       id="path2300"
       cx="116.35052"
       cy="100.65867"
       r="4.6244631" />
    <g
       aria-label="3"
       id="text3586"
       style="font-weight:bold;font-size:5.29167px;line-height:1.25;font-family:Play;-inkscape-font-specification:'Play Bold';text-align:center;letter-spacing:0px;word-spacing:0px;text-anchor:middle;stroke-width:0.264583">
      <path
         d="m 116.22529,102.54515 c 0.85195,0 1.40229,-0.45509 1.40229,-1.08479 0,-0.48155 -0.36513,-0.762 -0.762,-0.85196 0.40216,-0.11642 0.68262,-0.41804 0.68262,-0.836087 0,-0.576792 -0.51329,-0.994834 -1.32821,-0.994834 -0.64558,0 -1.0795,0.280459 -1.38112,0.645584 l 0.44979,0.47625 c 0.24342,-0.254 0.51329,-0.423333 0.85196,-0.423333 0.35983,0 0.61383,0.169333 0.61383,0.433917 0,0.259293 -0.23812,0.407463 -0.635,0.407463 l -0.41804,-0.005 v 0.66675 h 0.41804 c 0.48684,-0.005 0.70909,0.13759 0.70909,0.41805 0,0.25929 -0.23813,0.4445 -0.635,0.4445 -0.36513,0 -0.70909,-0.15346 -0.96838,-0.42863 l -0.46038,0.51858 c 0.30692,0.35455 0.80963,0.61384 1.46051,0.61384 z"
         style="font-family:Metropolis;-inkscape-font-specification:'Metropolis Bold'"
         id="path5080" />
    </g>
    <g
       id="g2523"
       transform="matrix(0.70216122,0,0,0.70216122,8.7280237,25.430805)">
      <path
         d="m 159.52892,82.060073 h 4.02409 a 0.97572931,0.97572931 0 1 0 0,-0.718807 h -4.02409 v -1.764158 h 2.59387 a 0.35960892,0.35960892 0 0 0 0.3594,-0.359404 v -2.367956 h 1.07082 a 0.97572931,0.97572931 0 1 0 0,-0.718807 h -1.43022 a 0.35960892,0.35960892 0 0 0 -0.3594,0.359404 v 2.367956 h -2.23447 v -1.821663 a 0.35960892,0.35960892 0 0 0 -0.3594,-0.359403 h -1.82166 v -2.234464 h 2.36795 a 0.35960892,0.35960892 0 0 0 0.35941,-0.359403 v -1.430221 a 0.97531856,0.97531856 0 1 0 -0.71881,0 v 1.070817 h -2.36796 a 0.35960892,0.35960892 0 0 0 -0.3594,0.359404 v 2.593867 h -1.76416 v -4.023883 a 0.97531856,0.97531856 0 1 0 -0.71881,0 v 4.023883 h -1.7621 v -4.024088 a 0.97572931,0.97572931 0 1 0 -0.71881,0 v 4.024088 h -1.76415 v -2.593867 a 0.35960892,0.35960892 0 0 0 -0.35941,-0.359404 h -2.36795 v -1.070817 a 0.97572931,0.97572931 0 1 0 -0.71881,0 v 1.430221 a 0.35960892,0.35960892 0 0 0 0.3594,0.359403 h 2.36796 v 2.234464 h -1.82166 a 0.35960892,0.35960892 0 0 0 -0.35941,0.359403 v 1.821663 h -2.23446 v -2.367956 a 0.35960892,0.35960892 0 0 0 -0.3594,-0.359404 h -1.43002 a 0.97552394,0.97552394 0 1 0 0,0.718807 h 1.07061 v 2.367956 a 0.35960892,0.35960892 0 0 0 0.35941,0.359404 h 2.59386 v 1.764158 h -4.02388 a 0.97531856,0.97531856 0 1 0 0,0.718807 h 4.02388 v 1.762104 h -4.02408 a 0.97572931,0.97572931 0 1 0 0,0.718807 h 4.02408 v 1.764158 h -2.59386 a 0.35960892,0.35960892 0 0 0 -0.35941,0.359404 v 2.367956 h -1.07081 a 0.97572931,0.97572931 0 1 0 0,0.718806 h 1.43022 a 0.35960892,0.35960892 0 0 0 0.3594,-0.359402 v -2.367957 h 2.23446 v 1.821663 a 0.35960892,0.35960892 0 0 0 0.35941,0.359404 h 1.82166 v 2.234463 h -2.36796 a 0.35960892,0.35960892 0 0 0 -0.3594,0.359404 v 1.43022 a 0.97531856,0.97531856 0 1 0 0.71881,0 v -1.070818 h 2.36795 a 0.35960892,0.35960892 0 0 0 0.35941,-0.359402 v -2.593867 h 1.76415 v 4.023881 a 0.97531856,0.97531856 0 1 0 0.71881,0 v -4.023881 h 1.7621 v 4.024087 a 0.97572931,0.97572931 0 1 0 0.71881,0 v -4.024087 h 1.76416 v 2.593867 a 0.35960892,0.35960892 0 0 0 0.3594,0.359402 h 2.36796 v 1.070818 a 0.97552394,0.97552394 0 1 0 0.71881,0 v -1.43022 a 0.35960892,0.35960892 0 0 0 -0.35941,-0.359404 h -2.36795 v -2.234463 h 1.82166 a 0.35960892,0.35960892 0 0 0 0.3594,-0.359404 v -1.821663 h 2.23447 v 2.367957 a 0.35960892,0.35960892 0 0 0 0.3594,0.359402 h 1.43022 a 0.97531856,0.97531856 0 1 0 0,-0.718806 h -1.07082 v -2.367956 a 0.35960892,0.35960892 0 0 0 -0.3594,-0.359404 h -2.59387 v -1.764158 h 4.02389 a 0.97531856,0.97531856 0 1 0 0,-0.718807 h -4.02389 z m 4.92897,-0.61612 a 0.25671683,0.25671683 0 1 1 -0.25672,0.256716 0.25712757,0.25712757 0 0 1 0.25672,-0.257128 z m 0,-5.21012 a 0.25671683,0.25671683 0 1 1 -0.25672,0.256717 0.25712757,0.25712757 0 0 1 0.25672,-0.257128 z m -4.74187,-4.742278 a 0.25671683,0.25671683 0 1 1 -0.25672,0.256716 0.25712757,0.25712757 0 0 1 0.25672,-0.256716 z m -5.21012,0 a 0.25671683,0.25671683 0 1 1 -0.25672,0.256716 0.25712757,0.25712757 0 0 1 0.25672,-0.256716 z m -2.48173,0 a 0.25671683,0.25671683 0 1 1 -0.25672,0.256716 0.2569222,0.2569222 0 0 1 0.25672,-0.256716 z m -5.21012,0 a 0.25671683,0.25671683 0 1 1 -0.25672,0.256716 0.2569222,0.2569222 0 0 1 0.25672,-0.256716 z m -4.74187,5.255301 a 0.25671683,0.25671683 0 1 1 0.25672,-0.256717 0.2569222,0.2569222 0 0 1 -0.25672,0.256717 z m 0,5.21012 a 0.25671683,0.25671683 0 1 1 0.25672,-0.256717 0.2569222,0.2569222 0 0 1 -0.25672,0.256717 z m 0,2.481732 a 0.25671683,0.25671683 0 1 1 0.25672,-0.256717 0.25712757,0.25712757 0 0 1 -0.25672,0.256717 z m 0,5.21012 a 0.25671683,0.25671683 0 1 1 0.25672,-0.256717 0.25712757,0.25712757 0 0 1 -0.25672,0.256717 z m 4.74187,4.741867 a 0.25671683,0.25671683 0 1 1 0.25671,-0.256716 0.25712757,0.25712757 0 0 1 -0.25671,0.256716 z m 5.21012,0 a 0.25671683,0.25671683 0 1 1 0.25671,-0.256716 0.25712757,0.25712757 0 0 1 -0.25671,0.256716 z m 2.48173,0 a 0.25671683,0.25671683 0 1 1 0.25672,-0.256716 0.2569222,0.2569222 0 0 1 -0.25672,0.256716 z m 5.21012,0 a 0.25671683,0.25671683 0 1 1 0.25672,-0.256716 0.2569222,0.2569222 0 0 1 -0.25672,0.256716 z m 4.74187,-5.255301 a 0.25671683,0.25671683 0 1 1 -0.25672,0.256717 0.2569222,0.2569222 0 0 1 0.25672,-0.256717 z m 0,-5.21012 a 0.25671683,0.25671683 0 1 1 -0.25672,0.256717 0.2569222,0.2569222 0 0 1 0.25672,-0.256717 z m -5.64777,4.560934 H 147.71995 V 77.396042 h 11.09017 z"
         id="path2"
         style="fill:#3776ab;fill-opacity:1;stroke-width:0.205374" />
      <path
         d="m 157.32116,78.525596 h -8.11225 a 0.35960892,0.35960892 0 0 0 -0.35941,0.359403 v 8.112252 a 0.35960892,0.35960892 0 0 0 0.35941,0.359403 h 8.11225 a 0.35960892,0.35960892 0 0 0 0.3594,-0.359403 v -8.112252 a 0.35960892,0.35960892 0 0 0 -0.3594,-0.359403 z m -0.3594,8.112251 h -7.39345 v -7.393444 h 7.39345 z"
         id="path4"
         style="fill:#ffcd3c;fill-opacity:1;stroke-width:0.205374" />
      <path
         d="m 156.08892,83.471604 a 0.35960892,0.35960892 0 0 0 0.3594,-0.359403 v -2.028062 a 0.359405,0.359405 0 0 0 -0.71881,0 v 2.028062 a 0.35960892,0.35960892 0 0 0 0.35941,0.359403 z"
         id="path6"
         style="fill:#ffcd3c;fill-opacity:1;stroke-width:0.205374" />
    </g>
  </g>
</svg>
