<?xml version="1.0" encoding="UTF-8" standalone="no"?>
<!-- Created with Inkscape (http://www.inkscape.org/) -->

<svg
   width="36.336948mm"
   height="39.782761mm"
   viewBox="0 0 36.336948 39.782761"
   version="1.1"
   id="svg18655"
   inkscape:version="1.1.1 (3bf5ae0d25, 2021-09-20)"
   sodipodi:docname="process-icon-2.svg"
   xmlns:inkscape="http://www.inkscape.org/namespaces/inkscape"
   xmlns:sodipodi="http://sodipodi.sourceforge.net/DTD/sodipodi-0.dtd"
   xmlns="http://www.w3.org/2000/svg"
   xmlns:svg="http://www.w3.org/2000/svg">
  <sodipodi:namedview
     id="namedview18657"
     pagecolor="#ffffff"
     bordercolor="#666666"
     borderopacity="1.0"
     inkscape:pageshadow="2"
     inkscape:pageopacity="0.0"
     inkscape:pagecheckerboard="0"
     inkscape:document-units="mm"
     showgrid="false"
     fit-margin-top="0"
     fit-margin-left="0"
     fit-margin-right="0"
     fit-margin-bottom="0"
     inkscape:zoom="2.1997092"
     inkscape:cx="87.511567"
     inkscape:cy="132.29021"
     inkscape:window-width="1920"
     inkscape:window-height="1021"
     inkscape:window-x="0"
     inkscape:window-y="0"
     inkscape:window-maximized="1"
     inkscape:current-layer="layer1" />
  <defs
     id="defs18652" />
  <g
     inkscape:label="Ebene 1"
     inkscape:groupmode="layer"
     id="layer1"
     transform="translate(-98.176313,-65.500372)">
    <circle
       style="fill:none;stroke:#b3b3b3;stroke-width:1;stroke-linecap:round;stroke-linejoin:round;stroke-miterlimit:4;stroke-dasharray:none;stroke-dashoffset:0;stroke-opacity:1"
       id="path2124"
       cx="116.34479"
       cy="83.668846"
       r="17.668474" />
    <circle
       style="fill:#ffcd3c;fill-opacity:1;stroke:none;stroke-width:1;stroke-linecap:round;stroke-linejoin:round;stroke-miterlimit:4;stroke-dasharray:none;stroke-dashoffset:0;stroke-opacity:1"
       id="path2300"
       cx="116.35052"
       cy="100.65867"
       r="4.6244631" />
    <g
       aria-label="2"
       id="text3586"
       style="font-weight:bold;font-size:5.29167px;line-height:1.25;font-family:Play;-inkscape-font-specification:'Play Bold';text-align:center;letter-spacing:0px;word-spacing:0px;text-anchor:middle;stroke-width:0.264583">
      <path
         d="m 114.84681,102.47636 h 2.74637 v -0.7038 h -1.53987 l 0.66146,-0.51329 c 0.635,-0.46037 0.84666,-0.83608 0.84666,-1.322915 0,-0.682625 -0.56091,-1.158876 -1.3335,-1.158876 -0.58737,0 -1.04775,0.254 -1.40758,0.709084 l 0.49742,0.481542 c 0.26458,-0.301625 0.53445,-0.481542 0.889,-0.481542 0.29633,0 0.55033,0.179917 0.55033,0.481542 0,0.254005 -0.13758,0.492125 -0.5715,0.836085 l -1.33879,1.03717 z"
         style="font-family:Metropolis;-inkscape-font-specification:'Metropolis Bold'"
         id="path4926" />
    </g>
    <g
       id="g2161"
       transform="matrix(0.12277069,0,0,0.12277069,98.340518,74.54933)">
      <path
         d="m 101.66353,27.617914 h 60.9555 c 1.09591,0 1.98438,-0.888471 1.98438,-1.984375 0,-1.095904 -0.88847,-1.984375 -1.98438,-1.984375 h -60.9555 c -1.0959,0 -1.984374,0.888471 -1.984374,1.984375 0,1.095904 0.888474,1.984375 1.984374,1.984375 z"
         id="path2"
         style="fill:#3776ab;fill-opacity:1;stroke-width:0.264583" />
      <path
         d="m 101.66353,46.330835 h 60.9555 c 1.09591,0 1.98438,-0.888471 1.98438,-1.984375 0,-1.095904 -0.88847,-1.984375 -1.98438,-1.984375 h -60.9555 c -1.0959,0 -1.984374,0.888471 -1.984374,1.984375 0,1.095904 0.888474,1.984375 1.984374,1.984375 z"
         id="path4"
         style="fill:#3776ab;fill-opacity:1;stroke-width:0.264583" />
      <path
         d="m 101.66353,65.043491 h 60.9555 c 1.09591,0 1.98438,-0.888471 1.98438,-1.984375 0,-1.095904 -0.88847,-1.984375 -1.98438,-1.984375 h -60.9555 c -1.0959,0 -1.984374,0.888471 -1.984374,1.984375 0,1.096169 0.888474,1.984375 1.984374,1.984375 z"
         id="path6"
         style="fill:#3776ab;fill-opacity:1;stroke-width:0.264583" />
      <path
         d="m 101.66353,83.756676 h 60.9555 c 1.09591,0 1.98438,-0.888471 1.98438,-1.984375 0,-1.095904 -0.88847,-1.984375 -1.98438,-1.984375 h -60.9555 c -1.0959,0 -1.984374,0.888471 -1.984374,1.984375 0,1.095904 0.888474,1.984375 1.984374,1.984375 z"
         id="path8"
         style="fill:#3776ab;fill-opacity:1;stroke-width:0.264583" />
      <path
         d="m 101.66353,100.13174 h 10.20207 c 1.0959,0 1.98437,-0.888472 1.98437,-1.984377 0,-1.095904 -0.88847,-1.984375 -1.98437,-1.984375 h -10.20207 c -1.0959,0 -1.984374,0.888471 -1.984374,1.984375 0,1.095905 0.888474,1.984377 1.984374,1.984377 z"
         id="path10"
         style="fill:#3776ab;fill-opacity:1;stroke-width:0.264583" />
      <path
         d="m 152.35664,92.558041 c -0.48207,-0.348986 -1.09485,-0.463021 -1.67058,-0.311415 -0.57547,0.151871 -1.05225,0.553773 -1.2991,1.095375 l -1.94205,4.259527 -4.74292,-4.687623 c -0.60457,-0.597164 -1.52241,-0.743214 -2.28282,-0.363273 l -17.92526,8.966998 c -0.98028,0.49027 -1.37715,1.68222 -0.88688,2.6625 0.34766,0.69506 1.04828,1.09722 1.77615,1.09696 0.29845,0 0.60139,-0.0675 0.88635,-0.21008 l 16.65367,-8.330934 5.7531,5.685894 c 0.46117,0.45588 1.11575,0.65749 1.75339,0.54028 0.63765,-0.11721 1.17793,-0.53843 1.44701,-1.12845 l 2.11534,-4.639201 9.46256,6.853241 c 0.88794,0.64267 2.12831,0.44423 2.77125,-0.44318 0.64293,-0.88768 0.4445,-2.12831 -0.44318,-2.77125 z"
         id="path12"
         style="fill:#3776ab;fill-opacity:1;stroke-width:0.264583" />
      <path
         d="m 205.71384,33.910764 h -3.23401 v -7.760229 c 0,-4.737629 -3.85418,-8.591814 -8.59207,-8.591814 -4.73763,0 -8.59182,3.854185 -8.59182,8.591814 v 66.697489 c 0,4.054475 2.8239,7.459666 6.60744,8.357926 v 5.37924 c 0,1.0959 0.88847,1.98438 1.98438,1.98438 1.0959,0 1.98437,-0.88848 1.98437,-1.98438 v -5.37924 c 3.78381,-0.89826 6.6077,-4.303451 6.6077,-8.357926 V 77.05822 c 0,-1.095904 -0.88847,-1.984375 -1.98437,-1.984375 -1.09591,0 -1.98438,0.888471 -1.98438,1.984375 v 4.06056 h -9.24639 V 37.879514 h 9.24639 v 30.530535 c 0,1.095904 0.88847,1.984375 1.98438,1.984375 1.0959,0 1.98437,-0.888471 1.98437,-1.984375 V 37.879514 h 3.23401 c 0.36459,0 0.66145,0.296863 0.66145,0.661458 v 22.962394 c 0,1.095904 0.88848,1.984375 1.98438,1.984375 1.0959,0 1.98437,-0.888471 1.98437,-1.984375 V 38.540972 c 0,-2.552964 -2.07724,-4.630208 -4.6302,-4.630208 z m -7.20276,51.176766 v 7.760494 c 0,2.54926 -2.07406,4.623064 -4.62332,4.623064 -2.54927,0 -4.62307,-2.073804 -4.62307,-4.623064 V 85.08753 Z m -9.24639,-51.176766 v -7.760229 c 0,-2.54926 2.0738,-4.623064 4.62307,-4.623064 2.54926,0 4.62332,2.073804 4.62332,4.623064 v 7.760229 z"
         id="path14"
         style="fill:#ffcd3c;fill-opacity:1;stroke-width:0.264583" />
      <path
         d="M 202.0991,112.53832 H 181.32719 V 11.177764 c 0,-2.5529641 -2.07724,-4.6302078 -4.63021,-4.6302078 H 87.585317 c -2.552965,0 -4.630208,2.0772437 -4.630208,4.6302078 v 47.985627 c 0,1.095904 0.88847,1.984375 1.984375,1.984375 1.095904,0 1.984374,-0.888471 1.984374,-1.984375 V 11.177764 c 0,-0.364595 0.296863,-0.661458 0.661459,-0.661458 h 89.111663 c 0.3646,0 0.66146,0.296863 0.66146,0.661458 V 112.53832 h -26.38478 c -1.0959,0 -1.98437,0.88847 -1.98437,1.98437 0,1.0959 0.88847,1.98438 1.98437,1.98438 h 51.12544 c 0.36459,0 0.66146,0.29686 0.66146,0.66145 v 10.16027 c 0,5.9092 -4.80748,10.71668 -10.71669,10.71668 h -84.49442 c 2.93317,-2.68843 4.77652,-6.54791 4.77652,-10.82172 v -10.05523 c 0,-0.36459 0.29687,-0.66145 0.66146,-0.66145 h 29.33806 c 1.09591,0 1.98438,-0.88848 1.98438,-1.98438 0,-1.0959 -0.88847,-1.98437 -1.98438,-1.98437 h -29.33806 c -2.55296,0 -4.63021,2.07724 -4.63021,4.6302 v 10.05523 c 0,5.88433 -4.78737,10.69102 -10.671699,10.71536 -5.909204,0 -10.761398,-4.70112 -10.761398,-10.61032 V 67.811562 c 0,-1.095904 -0.888471,-1.984375 -1.984375,-1.984375 -1.095904,0 -1.984375,0.888471 -1.984375,1.984375 v 59.517228 c 0,8.09757 6.58786,14.68543 14.685433,14.68543 h 94.403334 c 8.09757,0 14.68543,-6.58786 14.68543,-14.68543 v -10.16027 c -2.6e-4,-2.55323 -2.07724,-4.6302 -4.63047,-4.6302 z"
         id="path16"
         style="fill:#3776ab;fill-opacity:1;stroke-width:0.264583" />
    </g>
  </g>
</svg>
