<svg xmlns="http://www.w3.org/2000/svg" xmlns:svg="http://www.w3.org/2000/svg" id="svg5" width="1320" height="150" version="1.1" viewBox="0 0 349.25 39.688"><defs id="defs2"><marker style="overflow:visible" id="Arrow2Mend" orient="auto" refX="0" refY="0"><path style="fill:context-stroke;fill-rule:evenodd;stroke:context-stroke;stroke-width:.625;stroke-linejoin:round" id="path921" d="M 8.7185878,4.0337352 -2.2072895,0.01601326 8.7185884,-4.0017078 c -1.7454984,2.3720609 -1.7354408,5.6174519 -6e-7,8.035443 z" transform="scale(-0.6)"/></marker></defs><g id="layer1"><g id="path892"><path style="color:#000;fill:#3776ab;stroke-dasharray:2,.5;-inkscape-stroke:none" id="path24646" d="m 135.26758,18.623047 0.008,0.5 c 0.33899,-0.0057 0.68011,-0.0017 1.02148,0.0039 l 0.41407,0.0098 0.41601,0.01563 0.13086,0.0059 0.0254,-0.5 -0.13476,-0.0059 -0.42188,-0.01563 -0.41992,-0.0098 c -0.34517,-0.0057 -0.69146,-0.0097 -1.03906,-0.0039 z m -0.50196,0.0098 -0.10156,0.0039 c -0.63754,0.01923 -1.27433,0.05497 -1.91015,0.109375 l 0.041,0.498047 c 0.62634,-0.0536 1.25612,-0.09042 1.88477,-0.109375 l -0.002,0.002 0.0996,-0.0039 z m 3.01954,0.05273 -0.0312,0.5 0.21875,0.01172 0.42773,0.0332 0.43359,0.03711 0.43555,0.04297 0.44141,0.04883 0.0195,0.0039 0.0625,-0.496094 -0.0234,-0.0039 -0.44726,-0.04883 -0.44141,-0.04492 -0.43945,-0.03711 -0.43555,-0.0332 z m -5.53321,0.105469 c -0.6679,0.0655 -1.33463,0.149336 -1.99804,0.25 l 0.0762,0.49414 c 0.65479,-0.09936 1.31166,-0.181467 1.9707,-0.246094 z m 8.03907,0.138671 -0.0684,0.496094 0.38476,0.05078 0.45313,0.06836 0.45898,0.07617 0.46484,0.08008 0.20118,0.03906 0.0918,-0.492187 -0.20312,-0.03711 -0.4707,-0.08398 -0.46485,-0.07617 -0.46094,-0.06836 z m -10.53321,0.189454 c -0.6623,0.106738 -1.32067,0.228895 -1.97656,0.363281 l 0.0996,0.490234 c 0.65026,-0.133233 1.30298,-0.25592 1.95703,-0.361328 z m 13.01367,0.224609 -0.0976,0.490234 0.2539,0.05078 0.47852,0.103515 0.48633,0.109375 0.10937,-0.488281 L 143.51367,19.5 143.0293,19.396484 Z m -15.48242,0.242187 -0.56054,0.123047 -0.7168,0.164063 -0.67774,0.162109 0.11719,0.486328 0.67578,-0.162109 0.71094,-0.162109 0.55664,-0.121094 z m -38.484373,0.0332 -0.171875,0.46875 0.650391,0.240234 0.644531,0.230469 0.591797,0.205078 0.164063,-0.472656 -0.589844,-0.205079 -0.640625,-0.228515 z m 36.042973,0.535156 c -0.64926,0.160098 -1.29616,0.328646 -1.94141,0.498047 l 0.12695,0.484375 c 0.64436,-0.169168 1.2883,-0.336971 1.9336,-0.496094 z m -33.693363,0.296875 -0.158203,0.472656 0.199218,0.06836 0.623047,0.203125 0.615235,0.195313 0.472656,0.144531 0.146484,-0.478515 -0.470703,-0.144532 -0.611328,-0.193359 -0.617187,-0.201172 z m 31.269533,0.328125 -0.66406,0.173828 -1.27149,0.333984 0.12695,0.482422 1.27149,-0.332031 0.66406,-0.173828 z m -28.894533,0.419922 -0.140625,0.480468 0.251953,0.07422 0.59375,0.167969 0.585937,0.162109 0.501954,0.132813 0.126953,-0.484375 -0.498047,-0.13086 -0.582031,-0.160156 -0.587891,-0.167969 z m 26.476563,0.21289 -0.38086,0.09766 -0.71875,0.179687 -0.72266,0.175781 -0.11328,0.02734 0.11328,0.486328 0.11524,-0.02734 0.72656,-0.177734 0.72266,-0.179687 0.38281,-0.09766 z m -24.074219,0.44336 -0.123047,0.484375 0.166015,0.04102 0.566407,0.138672 0.560546,0.128906 0.552735,0.121094 0.113281,0.02344 0.101563,-0.488282 -0.109375,-0.02344 -0.548829,-0.121094 -0.554687,-0.128906 -0.5625,-0.134766 z m 21.650389,0.15039 -0.12695,0.0293 -0.73633,0.166016 -0.74219,0.15625 -0.34179,0.07031 0.0996,0.490235 0.34375,-0.07031 0.74804,-0.158203 0.74024,-0.166016 0.13086,-0.03125 z m -19.224608,0.400391 -0.09766,0.490234 0.482421,0.0957 0.535157,0.09961 0.529297,0.0918 0.429689,0.07031 0.0801,-0.492187 -0.425785,-0.07031 -0.523438,-0.0918 L 98.837891,22.5 Z m 16.791018,0.115234 c -0.65188,0.124193 -1.30724,0.237216 -1.96289,0.333985 l 0.0742,0.49414 c 0.66338,-0.09791 1.32456,-0.210604 1.98242,-0.335937 z m -14.33985,0.316407 -0.0762,0.49414 0.11524,0.01758 0.51172,0.07227 0.50585,0.06445 0.5,0.06055 0.36133,0.03906 0.0547,-0.498046 -0.35937,-0.03906 -0.4961,-0.05859 -0.5,-0.06445 -0.50586,-0.07227 z m 11.88477,0.08789 c -0.65649,0.09105 -1.31488,0.167773 -1.97461,0.226563 l 0.0449,0.498047 c 0.6683,-0.05955 1.33391,-0.136409 1.99805,-0.228516 z m -9.41797,0.210938 -0.0469,0.498047 0.12109,0.01172 0.48437,0.04102 0.48047,0.03516 0.47461,0.0293 0.44532,0.02344 0.0254,-0.5 -0.44336,-0.02344 -0.46875,-0.02734 -0.47266,-0.03516 -0.48047,-0.04102 z m 6.94727,0.05664 -0.13086,0.0098 -0.41602,0.0293 -0.42187,0.02539 c -0.33896,0.01769 -0.67725,0.03296 -1.01368,0.04102 l 0.0117,0.5 c 0.34471,-0.0082 0.68791,-0.0232 1.0293,-0.04102 l 0.42578,-0.02539 0.42383,-0.0293 0.13281,-0.01172 z m -4.46875,0.101563 -0.0137,0.5 0.44336,0.01172 0.45508,0.0078 0.45117,0.002 0.44727,-0.002 0.21289,-0.0039 -0.008,-0.5 -0.21094,0.0039 -0.44141,0.002 -0.44531,-0.002 -0.44922,-0.0078 z"/><g id="g24636"><g id="path24638"><path style="color:#000;fill:#3776ab;fill-rule:evenodd;stroke-width:.1875;stroke-linejoin:round;-inkscape-stroke:none" id="path24642" d="m 141.67292,18.083061 2.92015,1.915531 -3.46545,0.432616 c 0.67105,-0.574719 0.88835,-1.523781 0.5453,-2.348147 z"/><path style="color:#000;fill:#3776ab;fill-rule:evenodd;stroke-linejoin:round;-inkscape-stroke:none" id="path24644" d="m 141.72461,18.003906 a 0.09375937,0.09375937 0 0 0 -0.13867,0.115235 c 0.32785,0.787836 0.12038,1.69218 -0.51953,2.240234 a 0.09375937,0.09375937 0 0 0 0.0723,0.164062 l 3.4668,-0.43164 a 0.09375937,0.09375937 0 0 0 0.0391,-0.171875 z m 0.0527,0.261719 2.55274,1.671875 -3.02735,0.376953 c 0.51953,-0.553062 0.69355,-1.315195 0.47461,-2.048828 z"/></g></g></g><g id="path1672"><path style="color:#000;fill:#3776ab;stroke-dasharray:2,.5;-inkscape-stroke:none" id="path24660" d="m 249.8457,18.623047 0.008,0.5 c 0.33899,-0.0057 0.68011,-0.0017 1.02148,0.0039 l 0.41406,0.0098 0.41797,0.01563 0.13086,0.0059 0.0234,-0.5 -0.13281,-0.0059 -0.42383,-0.01563 -0.41797,-0.0098 h -0.002 c -0.34518,-0.0057 -0.69146,-0.0097 -1.03907,-0.0039 z m -0.50195,0.0098 -0.0996,0.0039 h -0.002 c -0.63754,0.01923 -1.27433,0.05497 -1.91016,0.109375 l 0.043,0.498047 c 0.62634,-0.0536 1.25416,-0.09042 1.88281,-0.109375 l -0.002,0.002 0.0996,-0.0039 z m 3.01953,0.05273 -0.0293,0.5 0.2168,0.01172 0.42969,0.0332 0.43164,0.03711 0.4375,0.04297 0.43945,0.04883 0.0195,0.0039 0.0625,-0.496094 -0.0215,-0.0039 -0.44727,-0.04883 -0.44336,-0.04492 -0.43945,-0.03711 -0.43359,-0.0332 z m -5.5332,0.105469 c -0.6679,0.0655 -1.33268,0.149336 -1.9961,0.25 l 0.0742,0.49414 c 0.6548,-0.09936 1.31167,-0.181467 1.97071,-0.246094 z m 8.04101,0.138671 -0.0684,0.496094 0.38282,0.05078 0.45507,0.06836 0.45899,0.07617 0.46289,0.08008 0.20117,0.03906 0.0937,-0.492187 -0.20508,-0.03711 -0.4707,-0.08398 -0.46484,-0.07617 -0.46094,-0.06836 z m -10.5332,0.189454 c -0.6623,0.106738 -1.32262,0.228895 -1.97852,0.363281 l 0.10157,0.490234 c 0.65026,-0.133233 1.30103,-0.25592 1.95508,-0.361328 z m 13.01367,0.224609 -0.0996,0.490234 0.25391,0.05078 0.47851,0.103515 0.48633,0.109375 0.10938,-0.488281 L 258.0918,19.5 257.60742,19.396484 Z m -15.48437,0.242187 -0.56055,0.123047 -0.7168,0.164063 -0.67578,0.162109 0.11524,0.486328 0.67578,-0.162109 0.71094,-0.162109 0.55859,-0.121094 z m -38.48438,0.0332 -0.17187,0.46875 0.65234,0.240234 0.64453,0.230469 0.58985,0.205078 0.16406,-0.472656 -0.58789,-0.205079 -0.64063,-0.228515 z m 36.04297,0.535156 c -0.64925,0.160098 -1.29421,0.328646 -1.93945,0.498047 l 0.12695,0.484375 c 0.64436,-0.169168 1.2883,-0.336971 1.93359,-0.496094 z m -33.69141,0.296875 -0.16015,0.472656 0.19922,0.06836 0.62304,0.203125 0.61524,0.195313 0.47461,0.144531 0.14648,-0.478515 -0.47265,-0.144532 -0.61133,-0.193359 -0.61719,-0.201172 z m 31.26758,0.328125 -0.66406,0.173828 -1.27148,0.333984 0.12695,0.482422 1.27148,-0.332031 0.66407,-0.173828 z m -28.89258,0.419922 -0.14257,0.480468 0.25195,0.07422 0.59375,0.167969 0.58789,0.162109 0.5,0.132813 0.12891,-0.484375 -0.5,-0.13086 -0.58203,-0.160156 -0.5879,-0.167969 z m 26.47461,0.21289 -0.38086,0.09766 -0.71875,0.179687 -0.72265,0.175781 -0.11328,0.02734 0.11328,0.486328 0.11719,-0.02734 0.72656,-0.177734 0.7207,-0.179687 0.38281,-0.09766 z m -24.07421,0.44336 -0.1211,0.484375 0.16406,0.04102 0.56641,0.138672 0.56055,0.128906 0.55273,0.121094 0.11328,0.02344 0.10352,-0.488282 -0.11133,-0.02344 -0.54883,-0.121094 -0.55469,-0.128906 -0.56054,-0.134766 z m 21.65234,0.15039 -0.12891,0.0293 -0.73437,0.166016 -0.74414,0.15625 -0.33985,0.07031 0.0996,0.490235 0.3418,-0.07031 0.74805,-0.158203 0.74023,-0.166016 0.13086,-0.03125 z m -19.22656,0.400391 -0.0977,0.490234 0.48438,0.0957 0.5332,0.09961 0.5293,0.0918 0.42968,0.07031 0.0801,-0.492187 -0.42578,-0.07031 -0.52344,-0.0918 L 213.41602,22.5 Z m 16.79101,0.115234 c -0.65187,0.124192 -1.30529,0.237216 -1.96094,0.333985 l 0.0723,0.49414 c 0.66338,-0.09791 1.32456,-0.210604 1.98242,-0.335937 z m -14.33984,0.316407 -0.0762,0.49414 0.11523,0.01758 0.51172,0.07227 0.50586,0.06445 0.5,0.06055 0.36328,0.03906 0.0527,-0.498046 -0.35937,-0.03906 -0.49414,-0.05859 -0.50195,-0.06445 -0.50586,-0.07227 z m 11.88476,0.08789 c -0.65649,0.09105 -1.31487,0.167773 -1.97461,0.226563 l 0.0449,0.498047 c 0.66829,-0.05955 1.33586,-0.136409 2,-0.228516 z m -9.41796,0.210938 -0.0469,0.498047 0.12305,0.01172 0.48437,0.04102 0.47852,0.03516 0.47461,0.0293 0.44531,0.02344 0.0254,-0.5 -0.44141,-0.02344 -0.4707,-0.02734 -0.47266,-0.03516 -0.47851,-0.04102 z m 6.94726,0.05664 -0.12891,0.0098 -0.41796,0.0293 -0.42188,0.02539 c -0.33896,0.01769 -0.67724,0.03296 -1.01367,0.04102 l 0.0117,0.5 c 0.3447,-0.0082 0.6879,-0.0232 1.02929,-0.04102 h 0.002 l 0.42578,-0.02539 0.42187,-0.0293 0.13282,-0.01172 z m -4.46875,0.101563 -0.0137,0.5 0.44336,0.01172 0.45703,0.0078 0.44922,0.002 0.44726,-0.002 0.21289,-0.0039 -0.008,-0.5 -0.21094,0.0039 -0.4414,0.002 -0.44531,-0.002 -0.44922,-0.0078 z"/><g id="g24650"><g id="path24652"><path style="color:#000;fill:#3776ab;fill-rule:evenodd;stroke-width:.1875;stroke-linejoin:round;-inkscape-stroke:none" id="path24656" d="m 256.25166,18.083061 2.92015,1.915531 -3.46545,0.432616 c 0.67105,-0.574719 0.88835,-1.523781 0.5453,-2.348147 z"/><path style="color:#000;fill:#3776ab;fill-rule:evenodd;stroke-linejoin:round;-inkscape-stroke:none" id="path24658" d="m 256.30273,18.003906 a 0.09375937,0.09375937 0 0 0 -0.13671,0.115235 c 0.32784,0.787836 0.11843,1.69218 -0.52149,2.240234 a 0.09375937,0.09375937 0 0 0 0.0742,0.164062 l 3.46484,-0.43164 a 0.09375937,0.09375937 0 0 0 0.0391,-0.171875 z m 0.0547,0.259766 2.55274,1.673828 -3.0293,0.376953 c 0.52004,-0.553518 0.69635,-1.316596 0.47656,-2.050781 z"/></g></g></g></g></svg>