<svg xmlns="http://www.w3.org/2000/svg" xmlns:svg="http://www.w3.org/2000/svg" id="svg18655" width="137.336" height="150.36" version="1.1" viewBox="0 0 36.337 39.783"><g id="layer1" transform="translate(-98.176313,-65.500372)"><circle style="fill:none;stroke:#b3b3b3;stroke-width:1;stroke-linecap:round;stroke-linejoin:round;stroke-miterlimit:4;stroke-dasharray:none;stroke-dashoffset:0;stroke-opacity:1" id="path2124" cx="116.345" cy="83.669" r="17.668"/><circle style="fill:#ffcd3c;fill-opacity:1;stroke:none;stroke-width:1;stroke-linecap:round;stroke-linejoin:round;stroke-miterlimit:4;stroke-dasharray:none;stroke-dashoffset:0;stroke-opacity:1" id="path2300" cx="116.351" cy="100.659" r="4.624"/><g id="text3586" aria-label="1" style="font-weight:700;font-size:5.29167px;line-height:1.25;font-family:Play;-inkscape-font-specification:'Play Bold';text-align:center;letter-spacing:0;word-spacing:0;text-anchor:middle;stroke-width:.264583"><path style="font-family:Metropolis;-inkscape-font-specification:'Metropolis Bold'" id="path2641" d="m 116.18031,102.47636 h 0.78316 v -3.635381 h -0.62441 l -1.09009,0.730251 0.31221,0.55033 0.61913,-0.386288 z"/></g><g id="g1868" transform="translate(0.1514926,0.44170863)"><path id="path2" d="m 123.73699,90.576991 h -5.92543 c -0.40084,0 -0.72691,-0.326106 -0.72691,-0.726908 v -2.180725 h -8.43505 c -0.40084,0 -0.72691,-0.326109 -0.72691,-0.726909 v -7.88292 c 0,-0.133848 0.10849,-0.242303 0.2423,-0.242303 0.13382,0 0.2423,0.108455 0.2423,0.242303 v 7.156011 h 7.95045 c 0.13381,0 0.2423,0.108455 0.2423,0.242303 0,0.133848 -0.10849,0.242302 -0.2423,0.242302 h -7.95045 v 0.242304 c 0,0.133622 0.10869,0.242302 0.24231,0.242302 h 8.43505 v -3.747617 h -7.03261 c -0.40082,0 -0.7269,-0.326108 -0.7269,-0.726909 v -2.196879 c 0,-0.400801 0.32608,-0.726909 0.7269,-0.726909 h 6.3057 c 0.13381,0 0.2423,0.108455 0.2423,0.242303 0,0.133848 -0.10849,0.242303 -0.2423,0.242303 h -6.3057 c -0.13358,0 -0.24229,0.108681 -0.24229,0.242303 v 2.196879 c 0,0.133623 0.10871,0.242303 0.24229,0.242303 h 7.03261 v -3.408394 c 0,-0.400801 0.32607,-0.726908 0.72691,-0.726908 h 4.22931 V 78.33262 h -13.87588 c -0.13381,0 -0.2423,-0.108455 -0.2423,-0.242303 v -1.486124 c 0,-0.400801 0.32607,-0.726909 0.72691,-0.726909 h 10.69363 c 0.13382,0 0.24231,0.108455 0.24231,0.242303 0,0.133849 -0.10849,0.242303 -0.24231,0.242303 H 108.6496 c -0.13362,0 -0.24231,0.108681 -0.24231,0.242303 v 1.243821 h 14.60279 v -1.243821 c 0,-0.133622 -0.10868,-0.242303 -0.2423,-0.242303 h -2.45534 c -0.13381,0 -0.2423,-0.108454 -0.2423,-0.242303 0,-0.133848 0.10849,-0.242303 0.2423,-0.242303 h 2.45534 c 0.40083,0 0.72691,0.326108 0.72691,0.726909 v 2.213033 h 0.2423 c 0.40083,0 0.72691,0.326107 0.72691,0.726908 v 10.305949 c 0,0.400802 -0.32608,0.726908 -0.72691,0.726908 z m -6.16774,-0.969212 v 0.242304 c 0,0.133622 0.10868,0.242303 0.24231,0.242303 h 5.92543 c 0.13362,0 0.2423,-0.108681 0.2423,-0.242303 v -0.242304 z m 0,-0.484605 h 6.41004 v -8.852131 h -6.41004 z m 0,-9.336737 h 6.41004 v -0.242303 c 0,-0.133622 -0.10868,-0.242302 -0.2423,-0.242302 h -5.92543 c -0.13363,0 -0.24231,0.10868 -0.24231,0.242302 z m 4.95623,-0.969211 h 0.4846 V 78.33262 h -0.4846 z m -7.04876,6.603561 c -0.062,0 -0.12402,-0.02365 -0.17132,-0.07095 -0.0946,-0.09466 -0.0946,-0.248053 0,-0.342681 l 0.11621,-0.116208 h -2.84929 c -0.13382,0 -0.2423,-0.108455 -0.2423,-0.242303 0,-0.133848 0.10848,-0.242303 0.2423,-0.242303 h 2.84929 l -0.11621,-0.116208 c -0.0946,-0.09466 -0.0946,-0.248054 0,-0.342681 0.0946,-0.09459 0.24806,-0.09459 0.34265,0 l 0.52984,0.529836 c 0.0946,0.09466 0.0946,0.248053 0,0.34268 l -0.52984,0.529836 c -0.0473,0.04733 -0.10933,0.07098 -0.17133,0.07098 z m 6.7903,-8.057378 c -0.14251,0 -0.25846,-0.115951 -0.25846,-0.258457 0,-0.142506 0.11595,-0.258456 0.25846,-0.258456 0.14251,0 0.25846,0.11595 0.25846,0.258456 0,0.142506 -0.11595,0.258457 -0.25846,0.258457 z m -0.96921,0 c -0.14251,0 -0.25846,-0.115951 -0.25846,-0.258457 0,-0.142506 0.11595,-0.258456 0.25846,-0.258456 0.14251,0 0.25846,0.11595 0.25846,0.258456 0,0.142506 -0.11595,0.258457 -0.25846,0.258457 z m -0.96921,0 c -0.14251,0 -0.25846,-0.115951 -0.25846,-0.258457 0,-0.142506 0.11595,-0.258456 0.25846,-0.258456 0.1425,0 0.25845,0.11595 0.25845,0.258456 0,0.142506 -0.11595,0.258457 -0.25845,0.258457 z" style="fill:#3776ab;fill-opacity:1;stroke-width:.032307"/><path style="fill:#ffcd3c;fill-opacity:1;stroke-width:.032307" id="path1272" d="m 120.71343,87.388118 c -1.50005,0 -2.72042,-1.220368 -2.72042,-2.720416 0,-1.500049 1.22037,-2.720415 2.72042,-2.720415 0.51562,0 1.01754,0.144962 1.45152,0.419248 0.11311,0.0715 0.14687,0.221142 0.0754,0.334281 -0.0715,0.11314 -0.22111,0.1469 -0.33427,0.07537 -0.35639,-0.225246 -0.76878,-0.344264 -1.19262,-0.344264 -1.23283,0 -2.23581,1.002972 -2.23581,2.235809 0,1.232837 1.00298,2.23581 2.23581,2.23581 1.23284,0 2.23581,-1.003005 2.23581,-2.235842 0,-0.355281 -0.0828,-0.700094 -0.2414,-1.011824 l -2.01557,2.015571 c -0.0946,0.09459 -0.24806,0.09459 -0.34265,0 l -1.18635,-1.186347 c -0.0946,-0.09466 -0.0946,-0.248053 0,-0.34268 0.0946,-0.09459 0.24805,-0.09459 0.34265,0 l 1.01502,1.015022 2.06174,-2.061706 c 10e-4,-0.0015 0.003,-0.0029 0.004,-0.0043 l 0.43321,-0.433205 c 0.0946,-0.0946 0.24805,-0.0946 0.34264,0 0.0946,0.09466 0.0946,0.248053 0,0.342681 l -0.298,0.298 c 0.24196,0.414467 0.36896,0.883695 0.36896,1.36885 6e-5,1.500016 -1.22031,2.720384 -2.72036,2.720384 z"/><path style="fill:#ffcd3c;fill-opacity:1;stroke-width:.032307" id="path1396" d="m 115.79501,82.598294 c -0.13382,0 -0.2423,-0.108454 -0.2423,-0.242303 v -0.260523 l -0.2256,0.130261 c -0.11589,0.06685 -0.26408,0.02724 -0.33099,-0.08868 -0.0669,-0.115885 -0.0272,-0.264078 0.0887,-0.330986 l 0.2256,-0.130294 -0.2256,-0.130262 c -0.11588,-0.06691 -0.15559,-0.215101 -0.0887,-0.330986 0.0669,-0.115918 0.21507,-0.155558 0.33099,-0.08868 l 0.2256,0.130262 v -0.260524 c 0,-0.133848 0.10848,-0.242303 0.2423,-0.242303 0.13381,0 0.2423,0.108455 0.2423,0.242303 v 0.260524 l 0.2256,-0.130262 c 0.11588,-0.06685 0.26408,-0.02724 0.33099,0.08868 0.0669,0.115885 0.0272,0.264078 -0.0887,0.330986 l -0.22561,0.130262 0.22561,0.130261 c 0.11588,0.06691 0.15558,0.215101 0.0887,0.330986 -0.0669,0.115918 -0.21514,0.155526 -0.33099,0.08868 l -0.2256,-0.130262 v 0.260524 c 0,0.133848 -0.10849,0.242335 -0.2423,0.242336 z m -2.2615,0 c -0.13381,0 -0.2423,-0.108454 -0.2423,-0.242303 v -0.260523 l -0.2256,0.130261 c -0.11589,0.06685 -0.26408,0.02724 -0.33099,-0.08868 -0.0669,-0.115885 -0.0272,-0.264078 0.0887,-0.330986 l 0.2256,-0.130294 -0.2256,-0.130262 c -0.11589,-0.06691 -0.1556,-0.215101 -0.0887,-0.330986 0.0669,-0.115918 0.21507,-0.155558 0.33099,-0.08868 l 0.2256,0.130262 v -0.260524 c 0,-0.133848 0.10849,-0.242303 0.2423,-0.242303 0.13382,0 0.24231,0.108455 0.24231,0.242303 v 0.260524 l 0.2256,-0.130262 c 0.11588,-0.06685 0.26408,-0.02724 0.33098,0.08868 0.0669,0.115885 0.0272,0.264078 -0.0887,0.330986 l -0.2256,0.130262 0.2256,0.130261 c 0.11589,0.06691 0.15559,0.215101 0.0887,0.330986 -0.0669,0.115918 -0.21513,0.155526 -0.33098,0.08868 l -0.2256,-0.130262 v 0.260524 c 0,0.133848 -0.10849,0.242335 -0.24231,0.242336 z m -2.26149,0 c -0.13381,0 -0.2423,-0.108454 -0.2423,-0.242303 v -0.260523 l -0.2256,0.130261 c -0.11589,0.06685 -0.26408,0.02724 -0.33099,-0.08868 -0.0669,-0.115885 -0.0272,-0.264078 0.0887,-0.330986 l 0.22559,-0.130294 -0.22559,-0.130262 c -0.11589,-0.06691 -0.1556,-0.215101 -0.0887,-0.330986 0.0669,-0.115918 0.21507,-0.155558 0.33099,-0.08868 l 0.2256,0.130262 v -0.260524 c 0,-0.133848 0.10849,-0.242303 0.2423,-0.242303 0.13382,0 0.24231,0.108455 0.24231,0.242303 v 0.260524 l 0.22559,-0.130262 c 0.11589,-0.06685 0.26408,-0.02724 0.33099,0.08868 0.0669,0.115885 0.0272,0.264078 -0.0887,0.330986 l -0.22561,0.130262 0.22561,0.130261 c 0.11588,0.06691 0.15558,0.215101 0.0887,0.330986 -0.0669,0.115918 -0.21513,0.155526 -0.33099,0.08868 l -0.22559,-0.130262 v 0.260524 c 0,0.133848 -0.10849,0.242335 -0.24231,0.242336 z"/></g></g></svg>