<svg xmlns="http://www.w3.org/2000/svg" width="933.333" height="933.333" preserveAspectRatio="xMidYMid meet" version="1.0" viewBox="0 0 700 700"><metadata>Created by potrace 1.14, written by Peter Selinger 2001-2017</metadata><g fill="#000" stroke="none"><path d="M3998 6946 c-1 -2 -79 -7 -173 -10 -93 -4 -183 -9 -200 -11 -16 -2 -59 -7 -95 -10 -214 -20 -574 -101 -786 -175 -581 -205 -1046 -519 -1419 -960 -366 -433 -624 -988 -729 -1570 -22 -121 -25 -139 -31 -195 -4 -27 -8 -63 -10 -80 -10 -81 -19 -253 -16 -293 1 -7 30 -42 66 -76 69 -68 151 -116 197 -116 27 0 102 26 123 42 13 10 107 93 159 141 22 20 70 52 104 69 85 42 176 44 272 4 36 -15 69 -28 74 -29 10 -2 12 5 20 118 3 50 8 101 11 114 2 14 7 47 10 74 3 27 12 82 20 121 122 614 402 1110 837 1482 243 208 592 387 919 473 63 16 134 33 159 37 25 4 47 8 50 9 3 1 32 5 65 9 32 4 68 10 78 12 116 22 475 22 627 0 14 -2 48 -7 75 -11 82 -12 268 -62 372 -101 253 -94 498 -246 690 -427 84 -80 189 -203 226 -264 10 -18 22 -33 26 -33 5 0 63 278 88 420 2 14 9 52 16 85 12 60 12 60 47 59 38 -2 186 -12 265 -19 28 -2 84 -6 125 -10 41 -3 104 -8 139 -11 l64 -5 -28 38 c-216 289 -554 560 -920 738 -256 125 -618 251 -805 281 -14 2 -36 7 -50 10 -14 3 -36 8 -50 10 -14 3 -47 9 -75 14 -27 5 -72 11 -100 14 -27 3 -61 8 -75 11 -14 3 -95 8 -180 11 -85 3 -160 7 -167 9 -6 2 -13 2 -15 1z" transform="translate(0.000000,700.000000) scale(0.100000,-0.100000)"/><path d="M1145 3596 c-49 -23 -91 -55 -165 -125 -63 -59 -135 -110 -181 -127 -87 -31 -195 2 -298 93 l-53 47 6 -140 c7 -160 14 -256 20 -299 3 -16 8 -52 11 -80 53 -433 211 -897 437 -1288 269 -463 647 -848 1102 -1121 100 -60 360 -192 416 -211 3 -1 19 -7 35 -14 60 -26 162 -64 235 -88 84 -28 355 -98 412 -107 21 -3 57 -10 80 -15 24 -6 66 -12 93 -15 28 -4 61 -8 75 -11 273 -49 849 -46 1175 6 55 8 75 12 138 23 296 55 597 164 850 308 228 129 476 312 640 472 43 42 81 76 84 76 3 0 69 -63 146 -140 77 -77 141 -140 143 -140 2 0 4 271 4 603 l0 602 -600 0 c-330 0 -600 -3 -600 -7 0 -3 63 -69 141 -146 l141 -141 -26 -33 c-25 -33 -154 -160 -211 -208 -264 -224 -586 -385 -890 -446 -21 -4 -121 -22 -164 -29 -78 -13 -212 -20 -396 -20 -229 0 -356 8 -452 30 -12 3 -40 7 -62 10 -94 12 -324 79 -481 141 -87 34 -289 142 -386 206 -419 274 -733 680 -929 1198 -39 102 -93 288 -110 375 -23 120 -45 262 -50 325 -4 41 -8 91 -10 110 -2 19 -5 83 -6 143 l-2 107 -33 25 c-56 43 -135 75 -184 75 -27 0 -66 -10 -95 -24z" transform="translate(0.000000,700.000000) scale(0.100000,-0.100000)"/></g></svg>